<svg width="166" height="106" viewBox="0 0 166 106" fill="none" xmlns="http://www.w3.org/2000/svg">
<g clip-path="url(#clip0_800_6380)">
<path d="M150.937 0H15.0624C14.4965 0 13.9296 0 13.3647 0.0033C12.8872 0.0067 12.4108 0.012 11.9344 0.025C10.8954 0.0531 9.84753 0.1144 8.82153 0.2988C7.77913 0.4864 6.80913 0.7924 5.86283 1.2742C4.93253 1.7473 4.08083 2.3661 3.34274 3.1045C2.60433 3.8429 1.98553 4.6932 1.51253 5.6245C1.03063 6.5708 0.724434 7.5411 0.538134 8.5843C0.352744 9.6106 0.291034 10.6583 0.263034 11.6962C0.250234 12.1726 0.244744 12.649 0.241634 13.1253C0.238334 13.6914 0.239434 14.2571 0.239434 14.8242V91.142C0.239434 91.7091 0.238334 92.2738 0.241634 92.841C0.244744 93.3173 0.250234 93.7937 0.263034 94.2701C0.291034 95.3071 0.352744 96.3548 0.538134 97.3808C0.724434 98.4244 1.03063 99.3943 1.51253 100.341C1.98553 101.272 2.60433 102.123 3.34274 102.861C4.08083 103.6 4.93253 104.219 5.86283 104.691C6.80913 105.174 7.77913 105.48 8.82153 105.668C9.84753 105.851 10.8954 105.913 11.9344 105.941C12.4108 105.952 12.8872 105.959 13.3647 105.961C13.9296 105.965 14.4965 105.965 15.0624 105.965H150.937C151.502 105.965 152.069 105.965 152.634 105.961C153.11 105.959 153.587 105.952 154.065 105.941C155.102 105.913 156.15 105.851 157.178 105.668C158.219 105.48 159.19 105.174 160.136 104.691C161.067 104.219 161.916 103.6 162.656 102.861C163.393 102.123 164.012 101.272 164.486 100.341C164.969 99.3943 165.275 98.4244 165.461 97.3808C165.646 96.3548 165.706 95.3071 165.734 94.2701C165.747 93.7937 165.754 93.3173 165.756 92.841C165.76 92.2738 165.76 91.7091 165.76 91.142V14.8242C165.76 14.2571 165.76 13.6914 165.756 13.1253C165.754 12.649 165.747 12.1726 165.734 11.6962C165.706 10.6583 165.646 9.6106 165.461 8.5843C165.275 7.5411 164.969 6.5708 164.486 5.6245C164.012 4.6932 163.393 3.8429 162.656 3.1045C161.916 2.3661 161.067 1.7473 160.136 1.2742C159.19 0.7924 158.219 0.4864 157.178 0.2988C156.15 0.1144 155.102 0.0531 154.065 0.025C153.587 0.012 153.11 0.0067 152.634 0.0033C152.069 0 151.502 0 150.937 0Z" fill="black"/>
<path d="M150.937 3.53125L152.609 3.53445C153.062 3.53765 153.515 3.54255 153.97 3.55495C154.762 3.57635 155.688 3.61925 156.552 3.77405C157.303 3.90925 157.932 4.11485 158.536 4.42245C159.133 4.72555 159.68 5.12275 160.157 5.59925C160.636 6.07895 161.033 6.62635 161.34 7.22945C161.646 7.82895 161.851 8.45555 161.985 9.21175C162.139 10.0659 162.182 10.9949 162.204 11.7918C162.216 12.2416 162.222 12.6915 162.224 13.152C162.229 13.7089 162.228 14.2655 162.228 14.8235V91.1413C162.228 91.6992 162.229 92.2549 162.224 92.8237C162.222 93.2734 162.216 93.7232 162.204 94.1738C162.182 94.9695 162.139 95.8979 161.983 96.7623C161.851 97.5081 161.646 98.1348 161.339 98.7373C161.033 99.3389 160.636 99.8857 160.159 100.362C159.679 100.842 159.134 101.238 158.53 101.544C157.931 101.85 157.302 102.056 156.559 102.19C155.678 102.347 154.713 102.39 153.986 102.409C153.528 102.42 153.073 102.426 152.607 102.428C152.051 102.432 151.493 102.432 150.937 102.432H15.0626C15.0552 102.432 15.048 102.432 15.0405 102.432C14.4911 102.432 13.9406 102.432 13.3812 102.428C12.9251 102.426 12.47 102.42 12.03 102.41C11.2864 102.39 10.3205 102.347 9.44658 102.191C8.69689 102.056 8.06838 101.85 7.46078 101.54C6.86289 101.237 6.31858 100.841 5.83848 100.361C5.36208 99.8849 4.96618 99.3399 4.66008 98.7374C4.35368 98.1355 4.14868 97.5069 4.01389 96.7522C3.85808 95.8895 3.81528 94.9648 3.79389 94.1745C3.78168 93.722 3.77658 93.2696 3.77368 92.8198L3.77148 91.4919L3.77158 91.1413V14.8235L3.77148 14.4729L3.77358 13.1478C3.77658 12.6953 3.78168 12.2429 3.79389 11.7908C3.81528 10.9997 3.85808 10.0745 4.01518 9.20465C4.14878 8.45675 4.35368 7.82815 4.66168 7.22325C4.96538 6.62535 5.36198 6.07955 5.84089 5.60075C6.31789 5.12355 6.86398 4.72685 7.46568 4.42085C8.06678 4.11475 8.69649 3.90925 9.44619 3.77435C10.31 3.61915 11.2371 3.57635 12.0311 3.55485C12.4837 3.54255 12.9363 3.53765 13.3855 3.53455L15.0626 3.53125H150.937Z" fill="white"/>
<path d="M45.4256 35.6397C46.8428 33.8671 47.8045 31.4869 47.5509 29.0547C45.4763 29.1578 42.9446 30.4234 41.4788 32.1974C40.1628 33.7166 38.9979 36.1965 39.3016 38.5267C41.6305 38.7288 43.9572 37.3627 45.4256 35.6397Z" fill="black"/>
<path d="M47.5244 38.9822C44.1423 38.7808 41.2667 40.9018 39.6516 40.9018C38.0356 40.9018 35.5623 39.0838 32.8872 39.1328C29.4054 39.1839 26.1748 41.1525 24.4079 44.2836C20.7738 50.5472 23.4489 59.8383 26.9828 64.9396C28.699 67.4634 30.7673 70.2423 33.4926 70.1425C36.0675 70.0414 37.0768 68.4752 40.2068 68.4752C43.3344 68.4752 44.2436 70.1425 46.9693 70.092C49.7959 70.0414 51.5631 67.5669 53.2793 65.0407C55.248 62.1637 56.054 59.3857 56.1047 59.2332C56.054 59.1827 50.6541 57.1111 50.604 50.8996C50.553 45.6986 54.8435 43.2247 55.0455 43.0713C52.6226 39.4878 48.8369 39.0838 47.5244 38.9822Z" fill="black"/>
<path d="M76.9731 31.9414C84.3241 31.9414 89.4429 37.0085 89.4429 44.3858C89.4429 51.7894 84.2188 56.8828 76.7888 56.8828H68.6499V69.826H62.7695V31.9414L76.9731 31.9414ZM68.6499 51.9469H75.3972C80.517 51.9469 83.4308 49.1905 83.4308 44.4121C83.4308 39.6342 80.517 36.9037 75.4235 36.9037H68.6499V51.9469Z" fill="black"/>
<path d="M90.9795 61.9754C90.9795 57.1443 94.6813 54.1777 101.245 53.8101L108.806 53.364V51.2376C108.806 48.1657 106.732 46.328 103.267 46.328C99.9844 46.328 97.9365 47.9029 97.4382 50.3711H92.0824C92.3974 45.3825 96.6502 41.707 103.477 41.707C110.171 41.707 114.45 45.2514 114.45 50.7909V69.8251H109.016V65.2832H108.885C107.284 68.355 103.792 70.2976 100.169 70.2976C94.7603 70.2976 90.9795 66.9371 90.9795 61.9754ZM108.806 59.4813V57.3023L102.006 57.7221C98.6191 57.9586 96.7029 59.455 96.7029 61.8179C96.7029 64.2329 98.6981 65.8083 101.744 65.8083C105.708 65.8083 108.806 63.0778 108.806 59.4813Z" fill="black"/>
<path d="M119.581 79.9868V75.3922C120 75.497 120.945 75.497 121.418 75.497C124.044 75.497 125.461 74.3946 126.327 71.5592C126.327 71.5066 126.827 69.879 126.827 69.8527L116.851 42.207H122.993L129.978 64.6807H130.082L137.066 42.207H143.052L132.707 71.2701C130.345 77.9652 127.615 80.118 121.891 80.118C121.418 80.118 120 80.0653 119.581 79.9868Z" fill="black"/>
</g>
<defs>
<clipPath id="clip0_800_6380">
<rect width="165.521" height="105.965" fill="white" transform="translate(0.239258)"/>
</clipPath>
</defs>
</svg>
