<svg version="1.1" xmlns="http://www.w3.org/2000/svg" xmlns:xlink="http://www.w3.org/1999/xlink" width="56" height="56" viewBox="0,0,256,256"><defs><linearGradient x1="28" y1="0" x2="28" y2="56" gradientUnits="userSpaceOnUse" id="color-1"><stop offset="0" stop-color="#f0eaf8"></stop><stop offset="1" stop-color="#f0eaf8"></stop><stop offset="1" stop-color="#f0eaf8"></stop></linearGradient></defs><g fill="none" fill-rule="nonzero" stroke="none" stroke-width="none" stroke-linecap="none" stroke-linejoin="none" stroke-miterlimit="10" stroke-dasharray="" stroke-dashoffset="0" font-family="none" font-weight="none" font-size="none" text-anchor="none" style="mix-blend-mode: normal"><g transform="scale(4.57143,4.57143)"><path d="M0,11.2c0,-6.18559 5.01441,-11.2 11.2,-11.2h33.6c6.1856,0 11.2,5.01441 11.2,11.2v33.6c0,6.1856 -5.0144,11.2 -11.2,11.2h-33.6c-6.18559,0 -11.2,-5.0144 -11.2,-11.2z" fill-opacity="0.7" fill="url(#color-1)" stroke="none" stroke-width="1" stroke-linecap="butt" stroke-linejoin="miter"></path><path d="M11.2,0.31111h33.6c6.0138,0 10.8889,4.87512 10.8889,10.88889v33.6c0,6.0138 -4.8751,10.8889 -10.8889,10.8889h-33.6c-6.01377,0 -10.88889,-4.8751 -10.88889,-10.8889v-33.6c0,-6.01377 4.87512,-10.88889 10.88889,-10.88889z" fill="none" stroke="#f0eaf8" stroke-width="0.62222" stroke-linecap="butt" stroke-linejoin="miter"></path><path d="M21.1751,35.8401v-9.9749c0,-3.7694 3.0557,-6.8252 6.8252,-6.8252v0c3.7694,0 6.8251,3.0558 6.8251,6.8252v9.9749M21.1751,35.8401h13.6503M21.1751,35.8401h-2.2751M34.8254,35.8401h2.2751" fill="none" stroke="#8f27c7" stroke-width="1.70629" stroke-linecap="round" stroke-linejoin="round"></path><path d="M26.8624,39.2h2.2751" fill="none" stroke="#8f27c7" stroke-width="1.70629" stroke-linecap="round" stroke-linejoin="round"></path><ellipse cx="28.0008" cy="17.92" rx="1.13753" ry="1.12" fill="none" stroke="#8f27c7" stroke-width="1.70629" stroke-linecap="butt" stroke-linejoin="miter"></ellipse></g></g></svg>