<svg width="50" height="36" viewBox="0 0 50 36" fill="none" xmlns="http://www.w3.org/2000/svg">
<rect x="0.420561" y="0.420561" width="49.1589" height="35.1589" rx="2.94393" fill="white" stroke="#F5F5F5" stroke-width="0.841121"/>
<mask id="mask0_104_401" style="mask-type:luminance" maskUnits="userSpaceOnUse" x="0" y="0" width="50" height="36">
<rect x="0.420561" y="0.420561" width="49.1589" height="35.1589" rx="2.94393" fill="white" stroke="white" stroke-width="0.841121"/>
</mask>
<g mask="url(#mask0_104_401)">
<rect x="35.7148" width="14.2857" height="36" fill="#FF3131"/>
<path fill-rule="evenodd" clip-rule="evenodd" d="M0 36H14.2857V0H0V36Z" fill="#FF3131"/>
<path fill-rule="evenodd" clip-rule="evenodd" d="M28.6924 16.6789C28.3012 17.0732 27.6362 16.7197 27.7443 16.1748L28.5727 11.9995L26.1918 13.1995L25.0013 9.59949L23.8108 13.1995L21.4299 11.9995L22.2583 16.1748C22.3664 16.7197 21.7014 17.0732 21.3102 16.6789L20.6375 16.0008C20.4181 15.7797 20.0607 15.7797 19.8413 16.0008L19.0489 16.7995L16.668 15.5995L17.8584 17.9995L17.0598 18.8046C16.8429 19.0232 16.8429 19.3758 17.0598 19.5944L20.2394 22.7995H23.8108L24.4061 26.3995H25.5965L26.1918 22.7995H29.7632L32.9428 19.5944C33.1597 19.3758 33.1597 19.0232 32.9428 18.8046L32.1442 17.9995L33.3346 15.5995L30.9537 16.7995L30.1613 16.0008C29.942 15.7797 29.5845 15.7797 29.3651 16.0008L28.6924 16.6789Z" fill="#FF3131"/>
</g>
</svg>
