<svg width="50" height="36" viewBox="0 0 50 36" fill="none" xmlns="http://www.w3.org/2000/svg">
<rect width="50" height="36" rx="3.36449" fill="white"/>
<mask id="mask0_104_408" style="mask-type:luminance" maskUnits="userSpaceOnUse" x="0" y="0" width="50" height="36">
<rect width="50" height="36" rx="3.36449" fill="white"/>
</mask>
<g mask="url(#mask0_104_408)">
<rect width="50" height="36" fill="#FF0000"/>
<path fill-rule="evenodd" clip-rule="evenodd" d="M21.4287 21.6005H14.8466C14.5369 21.6005 14.2859 21.3494 14.2859 21.0397V14.9612C14.2859 14.6515 14.5369 14.4005 14.8466 14.4005H21.4287V7.76121C21.4287 7.45152 21.6798 7.20046 21.9895 7.20046H28.0109C28.3205 7.20046 28.5716 7.45152 28.5716 7.76121V14.4005H35.1537C35.4634 14.4005 35.7145 14.6515 35.7145 14.9612V21.0397C35.7145 21.3494 35.4634 21.6005 35.1537 21.6005H28.5716V28.2397C28.5716 28.5494 28.3205 28.8005 28.0109 28.8005H21.9895C21.6798 28.8005 21.4287 28.5494 21.4287 28.2397V21.6005Z" fill="white"/>
</g>
</svg>
