<svg version="1.1" xmlns="http://www.w3.org/2000/svg" xmlns:xlink="http://www.w3.org/1999/xlink" width="80" height="80" viewBox="0,0,256,256"><defs><linearGradient x1="40" y1="0" x2="40" y2="80" gradientUnits="userSpaceOnUse" id="color-1"><stop offset="0" stop-color="#f0eaf8"></stop><stop offset="1" stop-color="#f0eaf8"></stop><stop offset="1" stop-color="#f0eaf8"></stop></linearGradient></defs><g fill="none" fill-rule="nonzero" stroke="none" stroke-width="none" stroke-linecap="butt" stroke-linejoin="miter" stroke-miterlimit="10" stroke-dasharray="" stroke-dashoffset="0" font-family="none" font-weight="none" font-size="none" text-anchor="none" style="mix-blend-mode: normal"><g transform="scale(3.2,3.2)"><path d="M0,16c0,-8.83656 7.16344,-16 16,-16h48c8.8366,0 16,7.16344 16,16v48c0,8.8366 -7.1634,16 -16,16h-48c-8.83656,0 -16,-7.1634 -16,-16z" fill-opacity="0.7" fill="url(#color-1)" stroke="none" stroke-width="1"></path><path d="M16,0.44444h48c8.5911,0 15.5556,6.96446 15.5556,15.55556v48c0,8.5911 -6.9645,15.5556 -15.5556,15.5556h-48c-8.5911,0 -15.55556,-6.9645 -15.55556,-15.5556v-48c0,-8.5911 6.96446,-15.55556 15.55556,-15.55556z" fill="none" stroke="#f0eaf8" stroke-width="0.88889"></path><path d="M29.2667,27.2c0,-1.7673 1.4327,-3.2 3.2,-3.2h2.1333c1.7673,0 3.2,1.4327 3.2,3.2v5.3333h4.2667v-5.3333c0,-1.7673 1.4327,-3.2 3.2,-3.2h2.1333c1.7673,0 3.2,1.4327 3.2,3.2v5.0815c0,0.4041 0.2283,0.7734 0.5896,0.9541l1.9082,0.954c1.0841,0.5421 1.7689,1.6501 1.7689,2.8622v15.7482c0,1.7673 -1.4327,3.2 -3.2,3.2h-6.4c-1.7673,0 -3.2,-1.4327 -3.2,-3.2v-6.4c0,-0.2829 0.1123,-0.5542 0.3124,-0.7542l1.8209,-1.821v-1.6915c0,-0.5891 -0.4776,-1.0666 -1.0667,-1.0666h-6.4c-0.5891,0 -1.0666,0.4775 -1.0666,1.0666v1.6915l1.8209,1.821c0.2,0.2 0.3124,0.4713 0.3124,0.7542v6.4c0,1.7673 -1.4327,3.2 -3.2,3.2h-6.4c-1.7673,0 -3.2,-1.4327 -3.2,-3.2v-15.7482c0,-1.2121 0.6848,-2.3201 1.7689,-2.8622l1.9081,-0.954c0.3614,-0.1807 0.5897,-0.55 0.5897,-0.9541zM32.4667,26.1333c-0.5891,0 -1.0667,0.4776 -1.0667,1.0667v1.0667h4.2667v-1.0667c0,-0.5891 -0.4776,-1.0667 -1.0667,-1.0667zM35.6667,30.4h-4.2667v1.8815c0,1.2121 -0.6848,2.3201 -1.7689,2.8622l-1.9081,0.9541c-0.3614,0.1806 -0.5897,0.55 -0.5897,0.954v12.5482h8.5334v-2.7582l-1.8209,-1.8209c-0.2001,-0.2 -0.3125,-0.4713 -0.3125,-0.7542v-2.1334c0,-1.7673 1.4327,-3.2 3.2,-3.2h6.4c1.7673,0 3.2,1.4327 3.2,3.2v2.1334c0,0.2829 -0.1123,0.5542 -0.3124,0.7542l-1.8209,1.8209v2.7582h8.5333v-12.5482c0,-0.404 -0.2282,-0.7734 -0.5896,-0.954l-1.9081,-0.9541c-1.0841,-0.5421 -1.7689,-1.6501 -1.7689,-2.8622v-1.8815h-4.2667v3.2c0,0.5891 -0.4776,1.0667 -1.0667,1.0667h-6.4c-0.5891,0 -1.0666,-0.4776 -1.0666,-1.0667zM44.2,28.2667h4.2667v-1.0667c0,-0.5891 -0.4776,-1.0667 -1.0667,-1.0667h-2.1333c-0.5891,0 -1.0667,0.4776 -1.0667,1.0667zM52.7333,51.7333h-8.5333v1.0667c0,0.5891 0.4776,1.0667 1.0667,1.0667h6.4c0.5891,0 1.0666,-0.4776 1.0666,-1.0667zM35.6667,51.7333h-8.5334v1.0667c0,0.5891 0.4776,1.0667 1.0667,1.0667h6.4c0.5891,0 1.0667,-0.4776 1.0667,-1.0667z" fill="#8f27c7" stroke="none" stroke-width="1"></path></g></g></svg>