<svg version="1.1" xmlns="http://www.w3.org/2000/svg" xmlns:xlink="http://www.w3.org/1999/xlink" width="80" height="80" viewBox="0,0,256,256"><defs><linearGradient x1="40" y1="0" x2="40" y2="80" gradientUnits="userSpaceOnUse" id="color-1"><stop offset="0" stop-color="#ece7f5"></stop><stop offset="1" stop-color="#ece7f5"></stop><stop offset="1" stop-color="#ece7f5"></stop></linearGradient></defs><g fill="none" fill-rule="none" stroke="none" stroke-width="none" stroke-linecap="butt" stroke-linejoin="miter" stroke-miterlimit="10" stroke-dasharray="" stroke-dashoffset="0" font-family="none" font-weight="none" font-size="none" text-anchor="none" style="mix-blend-mode: normal"><g transform="scale(3.2,3.2)"><path d="M0,16c0,-8.83656 7.16344,-16 16,-16h48c8.8366,0 16,7.16344 16,16v48c0,8.8366 -7.1634,16 -16,16h-48c-8.83656,0 -16,-7.1634 -16,-16z" fill-opacity="0.7" fill="url(#color-1)" fill-rule="nonzero" stroke="none" stroke-width="1"></path><path d="M0.44444,16c0,-8.5911 6.96446,-15.55556 15.55556,-15.55556h48c8.5911,0 15.5556,6.96446 15.5556,15.55556v48c0,8.5911 -6.9645,15.5556 -15.5556,15.5556h-48c-8.5911,0 -15.55556,-6.9645 -15.55556,-15.5556z" fill="none" fill-rule="nonzero" stroke="#ece7f5" stroke-width="0.88889"></path><path d="M24,24h2v30h30v2h-32zM44,31c0,-0.5523 0.4477,-1 1,-1h8c0.5523,0 1,0.4477 1,1v8c0,0.5523 -0.4477,1 -1,1c-0.5523,0 -1,-0.4477 -1,-1v-5.1986l-7.226,8.8318c-0.179,0.2187 -0.442,0.3515 -0.7242,0.3656c-0.2822,0.014 -0.5571,-0.0919 -0.7569,-0.2917l-5.1725,-5.1725l-7.3117,10.0536c-0.3248,0.4466 -0.9502,0.5454 -1.3969,0.2205c-0.4466,-0.3248 -0.5454,-0.9502 -0.2205,-1.3969l8,-11c0.172,-0.2365 0.4389,-0.3859 0.7305,-0.4087c0.2915,-0.0229 0.5785,0.083 0.7853,0.2898l5.2187,5.2186l6.964,-8.5115h-5.8898c-0.5523,0 -1,-0.4477 -1,-1z" fill="#8f27c7" fill-rule="evenodd" stroke="none" stroke-width="1"></path></g></g></svg>