<svg width="50" height="36" viewBox="0 0 50 36" fill="none" xmlns="http://www.w3.org/2000/svg">
<rect x="0.420561" y="0.420561" width="49.1589" height="35.1589" rx="2.94393" fill="white" stroke="#F5F5F5" stroke-width="0.841121"/>
<mask id="mask0_104_380" style="mask-type:luminance" maskUnits="userSpaceOnUse" x="0" y="0" width="50" height="36">
<rect x="0.420561" y="0.420561" width="49.1589" height="35.1589" rx="2.94393" fill="white" stroke="white" stroke-width="0.841121"/>
</mask>
<g mask="url(#mask0_104_380)">
<path fill-rule="evenodd" clip-rule="evenodd" d="M3.36449 0C1.50633 0 0 1.50633 0 3.36449V14.4H14.2857V0H3.36449ZM21.4286 0V14.4H50V3.36449C50 1.50633 48.4937 0 46.6355 0H21.4286ZM50 21.6H21.4286V36H46.6355C48.4937 36 50 34.4937 50 32.6355V21.6ZM14.2857 36V21.6H0V32.6355C0 34.4937 1.50633 36 3.36449 36H14.2857Z" fill="#EF264D"/>
</g>
</svg>
