<svg width="50" height="36" viewBox="0 0 50 36" fill="none" xmlns="http://www.w3.org/2000/svg">
<rect width="50" height="36" rx="3.36449" fill="white"/>
<mask id="mask0_104_308" style="mask-type:luminance" maskUnits="userSpaceOnUse" x="0" y="0" width="50" height="36">
<rect width="50" height="36" rx="3.36449" fill="white"/>
</mask>
<g mask="url(#mask0_104_308)">
<rect width="50" height="36" fill="#043CAE"/>
<path fill-rule="evenodd" clip-rule="evenodd" d="M23.3164 7.69627L25 7.19921L26.6836 7.69627L26.1905 5.99921L26.6836 4.30215L25 4.79921L23.3164 4.30215L23.8095 5.99921L23.3164 7.69627ZM23.3164 31.6962L25 31.1991L26.6836 31.6962L26.1905 29.9991L26.6836 28.302L25 28.7991L23.3164 28.302L23.8095 29.9991L23.3164 31.6962ZM36.9039 19.2L35.2203 19.697L35.7134 18L35.2203 16.3029L36.9039 16.8L38.5875 16.3029L38.0943 18L38.5875 19.697L36.9039 19.2ZM11.4126 19.697L13.0962 19.2L14.7798 19.697L14.2867 18L14.7798 16.3029L13.0962 16.8L11.4126 16.3029L11.9057 18L11.4126 19.697ZM35.3103 13.1988L33.6267 13.6958L34.1199 11.9988L33.6267 10.3017L35.3103 10.7988L36.9939 10.3017L36.5008 11.9988L36.9939 13.6958L35.3103 13.1988ZM13.0061 25.6966L14.6897 25.1995L16.3733 25.6966L15.8802 23.9995L16.3733 22.3025L14.6897 22.7995L13.0061 22.3025L13.4992 23.9995L13.0061 25.6966ZM30.9536 8.80753L29.27 9.30458L29.7631 7.60753L29.27 5.91047L30.9536 6.40753L32.6372 5.91047L32.1441 7.60753L32.6372 9.30458L30.9536 8.80753ZM17.3629 30.0895L19.0465 29.5924L20.73 30.0895L20.2369 28.3924L20.73 26.6954L19.0465 27.1924L17.3629 26.6954L17.856 28.3924L17.3629 30.0895ZM35.3103 25.1995L33.6267 25.6966L34.1199 23.9995L33.6267 22.3025L35.3103 22.7995L36.9939 22.3025L36.5008 23.9995L36.9939 25.6966L35.3103 25.1995ZM13.0061 13.6958L14.6897 13.1988L16.3733 13.6958L15.8802 11.9988L16.3733 10.3017L14.6897 10.7988L13.0061 10.3017L13.4992 11.9988L13.0061 13.6958ZM30.9536 29.5924L29.27 30.0895L29.7631 28.3924L29.27 26.6954L30.9536 27.1924L32.6372 26.6954L32.1441 28.3924L32.6372 30.0895L30.9536 29.5924ZM17.3629 9.30458L19.0465 8.80753L20.73 9.30458L20.2369 7.60753L20.73 5.91047L19.0465 6.40753L17.3629 5.91047L17.856 7.60753L17.3629 9.30458Z" fill="#FFD429"/>
</g>
</svg>
