<svg version="1.1" xmlns="http://www.w3.org/2000/svg" xmlns:xlink="http://www.w3.org/1999/xlink" width="80" height="80" viewBox="0,0,256,256"><defs><linearGradient x1="40" y1="0" x2="40" y2="80" gradientUnits="userSpaceOnUse" id="color-1"><stop offset="0" stop-color="#ece7f5"></stop><stop offset="1" stop-color="#ece7f5"></stop><stop offset="1" stop-color="#ece7f5"></stop></linearGradient></defs><g fill="none" fill-rule="nonzero" stroke="none" stroke-width="none" stroke-linecap="butt" stroke-linejoin="miter" stroke-miterlimit="10" stroke-dasharray="" stroke-dashoffset="0" font-family="none" font-weight="none" font-size="none" text-anchor="none" style="mix-blend-mode: normal"><g transform="scale(3.2,3.2)"><path d="M0,16c0,-8.83656 7.16344,-16 16,-16h48c8.8366,0 16,7.16344 16,16v48c0,8.8366 -7.1634,16 -16,16h-48c-8.83656,0 -16,-7.1634 -16,-16z" fill-opacity="0.7" fill="url(#color-1)" stroke="none" stroke-width="1"></path><path d="M0.44444,16c0,-8.5911 6.96446,-15.55556 15.55556,-15.55556h48c8.5911,0 15.5556,6.96446 15.5556,15.55556v48c0,8.5911 -6.9645,15.5556 -15.5556,15.5556h-48c-8.5911,0 -15.55556,-6.9645 -15.55556,-15.5556z" fill="none" stroke="#ece7f5" stroke-width="0.88889"></path><path d="M40,24c-8.8366,0 -16,7.1634 -16,16c0,8.8366 7.1634,16 16,16c8.8366,0 16,-7.1634 16,-16c0,-8.8366 -7.1634,-16 -16,-16zM28.0808,32.6523c0.6502,2.6574 5.0629,5.0784 7.4322,6.3782c0.9613,0.5274 1.5862,0.8703 1.487,0.9695c-0.1614,0.1614 -0.3246,0.3167 -0.4845,0.4689c-0.8307,0.7908 -1.5726,1.4971 -1.5155,2.5311c0.0701,1.2687 1.2356,1.6473 2.4284,2.0348c1.1546,0.375 2.3347,0.7583 2.5716,1.9652c0.1639,0.8349 -0.1491,1.9763 -0.4406,3.0395c-0.429,1.5649 -0.8116,2.9605 0.4406,2.9605c3,-1 7.5968,-6.3712 8,-10c0.2761,-2.4853 -4,-4 -7,-5c-0.956,-0.3186 -1.511,0.1622 -1.9806,0.5689c-0.3443,0.2983 -0.6426,0.5567 -1.0194,0.4311c-0.8906,-0.2969 -5,-4 -3,-5c1.5616,-0.7808 1.9039,-0.3423 2.4549,0.3634c0.1547,0.1982 0.3259,0.4174 0.5451,0.6366c1.217,0.6085 1.3232,-0.2641 1.4451,-1.2659c0.0784,-0.6445 0.1634,-1.3426 0.5549,-1.7341c0.8672,-0.8672 2.5296,-1.5825 4.0554,-2.239c1.4252,-0.6132 2.7311,-1.1751 3.1586,-1.7617c4.0663,2.4496 6.786,6.9076 6.786,12.0007c0,7.732 -6.268,14 -14,14c-7.732,0 -14,-6.268 -14,-14c0,-2.6949 0.7614,-5.2119 2.0808,-7.3477z" fill="#8f27c7" stroke="none" stroke-width="1"></path></g></g></svg>