<svg version="1.1" xmlns="http://www.w3.org/2000/svg" xmlns:xlink="http://www.w3.org/1999/xlink" width="80" height="80" viewBox="0,0,256,256"><defs><linearGradient x1="40" y1="0" x2="40" y2="80" gradientUnits="userSpaceOnUse" id="color-1"><stop offset="0" stop-color="#f0eaf8"></stop><stop offset="1" stop-color="#f0eaf8"></stop><stop offset="1" stop-color="#f0eaf8"></stop></linearGradient></defs><g fill="none" fill-rule="none" stroke="none" stroke-width="none" stroke-linecap="butt" stroke-linejoin="miter" stroke-miterlimit="10" stroke-dasharray="" stroke-dashoffset="0" font-family="none" font-weight="none" font-size="none" text-anchor="none" style="mix-blend-mode: normal"><g transform="scale(3.2,3.2)"><path d="M0,16c0,-8.83656 7.16344,-16 16,-16h48c8.8366,0 16,7.16344 16,16v48c0,8.8366 -7.1634,16 -16,16h-48c-8.83656,0 -16,-7.1634 -16,-16z" fill-opacity="0.7" fill="url(#color-1)" fill-rule="nonzero" stroke="none" stroke-width="1"></path><path d="M16,0.44444h48c8.5911,0 15.5556,6.96446 15.5556,15.55556v48c0,8.5911 -6.9645,15.5556 -15.5556,15.5556h-48c-8.5911,0 -15.55556,-6.9645 -15.55556,-15.5556v-48c0,-8.5911 6.96446,-15.55556 15.55556,-15.55556z" fill="none" fill-rule="nonzero" stroke="#f0eaf8" stroke-width="0.88889"></path><path d="M24.257,41.1107v2.4893h1.0858v-2.4895l1.7604,1.7604l0.7677,-0.7677l-1.7604,-1.7604h2.4895v-1.0858h-2.4893l1.7602,-1.7601l-0.7678,-0.7677l-1.7603,1.7604v-2.4896h-1.0858v2.4893l-1.7601,-1.7601l-0.7677,0.7677l1.7601,1.7601h-2.4893v1.0858h2.4896l-1.7605,1.7604l0.7678,0.7677z" fill="#8f27c7" fill-rule="evenodd" stroke="none" stroke-width="1"></path><path d="M34.3906,41.1105v2.4895h1.0857v-2.4893l1.7602,1.7602l0.7677,-0.7677l-1.7604,-1.7604h2.4897v-1.0858h-2.4895l1.7602,-1.7601l-0.7677,-0.7677l-1.7602,1.7601v-2.4893h-1.0857v2.4896l-1.7604,-1.7604l-0.7677,0.7677l1.7601,1.7601h-2.4891v1.0858h2.4894l-1.7605,1.7604l0.7678,0.7677z" fill="#8f27c7" fill-rule="evenodd" stroke="none" stroke-width="1"></path><path d="M44.5236,41.1107v2.4893h1.0858v-2.4895l1.7604,1.7604l0.7677,-0.7677l-1.7604,-1.7604h2.4893v-1.0858h-2.4891l1.7602,-1.7601l-0.7678,-0.7677l-1.7603,1.7604v-2.4896h-1.0858v2.4893l-1.7601,-1.7601l-0.7677,0.7677l1.7601,1.7601h-2.4895v1.0858h2.4898l-1.7605,1.7604l0.7677,0.7677z" fill="#8f27c7" fill-rule="evenodd" stroke="none" stroke-width="1"></path><path d="M54.6572,41.1105v2.4895h1.0857v-2.4893l1.7602,1.7602l0.7677,-0.7677l-1.7604,-1.7604h2.4895v-1.0858h-2.4893l1.7602,-1.7601l-0.7678,-0.7677l-1.7601,1.7601v-2.4893h-1.0857v2.4896l-1.7604,-1.7604l-0.7677,0.7677l1.7601,1.7601h-2.4893v1.0858h2.4896l-1.7605,1.7604l0.7678,0.7677z" fill="#8f27c7" fill-rule="evenodd" stroke="none" stroke-width="1"></path></g></g></svg>