<svg version="1.1" xmlns="http://www.w3.org/2000/svg" xmlns:xlink="http://www.w3.org/1999/xlink" width="80" height="80" viewBox="0,0,256,256"><defs><linearGradient x1="40" y1="0" x2="40" y2="80" gradientUnits="userSpaceOnUse" id="color-1"><stop offset="0" stop-color="#f0eaf8"></stop><stop offset="1" stop-color="#f0eaf8"></stop><stop offset="1" stop-color="#f0eaf8"></stop></linearGradient></defs><g fill="none" fill-rule="nonzero" stroke="none" stroke-width="none" stroke-linecap="none" stroke-linejoin="miter" stroke-miterlimit="10" stroke-dasharray="" stroke-dashoffset="0" font-family="none" font-weight="none" font-size="none" text-anchor="none" style="mix-blend-mode: normal"><g transform="scale(3.2,3.2)"><rect x="0" y="0" width="80" height="80" rx="12" ry="0" fill-opacity="0.7" fill="url(#color-1)" stroke="none" stroke-width="1" stroke-linecap="butt"></rect><rect x="0.44444" y="0.44444" width="79.1111" height="79.1111" rx="11.5556" ry="0" fill="none" stroke="#f0eaf8" stroke-width="0.88889" stroke-linecap="butt"></rect><path d="M47.3257,36.2979v-4.6849c0,-2.0191 -0.8187,-3.9555 -2.2758,-5.3832c-1.4572,-1.4277 -3.4336,-2.2298 -5.4943,-2.2298c-2.0608,0 -4.0372,0.8021 -5.4943,2.2298c-1.4572,1.4277 -2.2759,3.3641 -2.2759,5.3832v4.6537c0,0 0,0 0,0.0312c-1.7265,1.5368 -2.938,3.5496 -3.475,5.7737c-0.537,2.2241 -0.3745,4.5554 0.4663,6.6873c0.8408,2.1319 2.3204,3.9645 4.2443,5.257c1.9238,1.2924 4.2019,1.9841 6.5346,1.9841c2.3326,0 4.6107,-0.6917 6.5346,-1.9841c1.9238,-1.2925 3.4034,-3.1251 4.2442,-5.257c0.8408,-2.1319 1.0033,-4.4632 0.4663,-6.6873c-0.537,-2.2241 -1.7484,-4.2369 -3.475,-5.7737zM34.1762,31.613c0,-1.3978 0.5668,-2.7384 1.5756,-3.7268c1.0088,-0.9885 2.3771,-1.5437 3.8038,-1.5437c1.4266,0 2.7949,0.5552 3.8037,1.5437c1.0088,0.9884 1.5756,2.329 1.5756,3.7268v3.0374c-1.6579,-0.8578 -3.5045,-1.3062 -5.3793,-1.3062c-1.8749,0 -3.7215,0.4484 -5.3794,1.3062zM39.5556,53.6634c-1.8127,0 -3.5846,-0.5267 -5.0917,-1.5133c-1.5071,-0.9867 -2.6818,-2.3891 -3.3755,-4.0299c-0.6936,-1.6408 -0.8751,-3.4462 -0.5215,-5.1881c0.3536,-1.7418 1.2265,-3.3418 2.5082,-4.5976c1.2817,-1.2558 2.9147,-2.111 4.6925,-2.4575c1.7778,-0.3464 3.6205,-0.1686 5.2952,0.511c1.6746,0.6796 3.1059,1.8306 4.113,3.3072c1.007,1.4767 1.5445,3.2128 1.5445,4.9887c0,2.3815 -0.9656,4.6655 -2.6843,6.3494c-1.7187,1.684 -4.0498,2.6301 -6.4804,2.6301z" fill="#8f27c7" stroke="none" stroke-width="1" stroke-linecap="butt"></path><path d="M39.5558,43.3011v4.1261" fill="none" stroke="#8f27c7" stroke-width="3.06438" stroke-linecap="round"></path></g></g></svg>