<svg version="1.1" xmlns="http://www.w3.org/2000/svg" xmlns:xlink="http://www.w3.org/1999/xlink" width="80" height="80" viewBox="0,0,256,256"><defs><linearGradient x1="40" y1="0" x2="40" y2="80" gradientUnits="userSpaceOnUse" id="color-1"><stop offset="0" stop-color="#f0eaf8"></stop><stop offset="1" stop-color="#f0eaf8"></stop><stop offset="1" stop-color="#f0eaf8"></stop></linearGradient></defs><g fill="none" fill-rule="nonzero" stroke="none" stroke-width="none" stroke-linecap="butt" stroke-linejoin="miter" stroke-miterlimit="10" stroke-dasharray="" stroke-dashoffset="0" font-family="none" font-weight="none" font-size="none" text-anchor="none" style="mix-blend-mode: normal"><g transform="scale(3.2,3.2)"><path d="M0,16c0,-8.83656 7.16344,-16 16,-16h48c8.8366,0 16,7.16344 16,16v48c0,8.8366 -7.1634,16 -16,16h-48c-8.83656,0 -16,-7.1634 -16,-16z" fill-opacity="0.7" fill="url(#color-1)" stroke="none" stroke-width="1"></path><path d="M0.44444,16c0,-8.5911 6.96446,-15.55556 15.55556,-15.55556h48c8.5911,0 15.5556,6.96446 15.5556,15.55556v48c0,8.5911 -6.9645,15.5556 -15.5556,15.5556h-48c-8.5911,0 -15.55556,-6.9645 -15.55556,-15.5556z" fill="none" stroke="#f0eaf8" stroke-width="0.88889"></path><path d="M26,30c0,-1.1046 0.8954,-2 2,-2h24c1.1046,0 2,0.8954 2,2z" fill="#8f27c7" stroke="none" stroke-width="1"></path><path d="M40,46c2.2091,0 4,-1.7909 4,-4c0,-2.2091 -1.7909,-4 -4,-4c-2.2091,0 -4,1.7909 -4,4c0,2.2091 1.7909,4 4,4z" fill="#8f27c7" stroke="none" stroke-width="1"></path><path d="M24,34c0,-1.1046 0.8954,-2 2,-2h28c1.1046,0 2,0.8954 2,2v16c0,1.1046 -0.8954,2 -2,2h-28c-1.1046,0 -2,-0.8954 -2,-2zM30,34c0,2.2091 -1.7909,4 -4,4v8c2.2091,0 4,1.7909 4,4h20c0,-2.2091 1.7909,-4 4,-4v-8c-2.2091,0 -4,-1.7909 -4,-4z" fill="#8f27c7" stroke="none" stroke-width="1"></path></g></g></svg>