<svg version="1.1" xmlns="http://www.w3.org/2000/svg" xmlns:xlink="http://www.w3.org/1999/xlink" width="240.000000pt" height="240.000000pt" viewBox="0,0,256,256"><g fill="#8f27c7" fill-rule="nonzero" stroke="none" stroke-width="1" stroke-linecap="butt" stroke-linejoin="miter" stroke-miterlimit="10" stroke-dasharray="" stroke-dashoffset="0" font-family="none" font-weight="none" font-size="none" text-anchor="none" style="mix-blend-mode: normal"><g transform="translate(-0.02069,0.19175) scale(1.06667,1.06667)"><g transform="translate(0,240) scale(0.1,-0.1)"><path d="M1109,1667c-141,-40 -248,-164 -265,-307c-17,-143 90,-354 282,-557l74,-78l64,67c130,135 228,284 272,414c34,101 29,179 -16,270c-74,150 -256,235 -411,191zM1299,1603c148,-47 235,-222 186,-374c-35,-109 -129,-257 -239,-374l-46,-50l-55,60c-72,78 -168,218 -208,303c-28,59 -32,78 -32,152c0,70 4,93 24,130c41,79 108,135 191,161c44,13 126,10 179,-8z"></path><path d="M1148,1491c-81,-26 -135,-109 -124,-189c14,-100 101,-171 194,-158c99,13 171,101 158,193c-12,89 -72,149 -157,158c-24,2 -56,0 -71,-4zM1260,1425c16,-9 36,-29 45,-45c31,-60 10,-137 -45,-165c-110,-57 -222,55 -165,165c29,55 105,76 165,45z"></path></g></g></g></svg>