<svg version="1.1" xmlns="http://www.w3.org/2000/svg" xmlns:xlink="http://www.w3.org/1999/xlink" width="80" height="80" viewBox="0,0,256,256"><defs><linearGradient x1="40" y1="0" x2="40" y2="80" gradientUnits="userSpaceOnUse" id="color-1"><stop offset="0" stop-color="#f0eaf8"></stop><stop offset="1" stop-color="#f0eaf8"></stop><stop offset="1" stop-color="#f0eaf8"></stop></linearGradient></defs><g fill="none" fill-rule="nonzero" stroke="none" stroke-width="none" stroke-linecap="butt" stroke-linejoin="miter" stroke-miterlimit="10" stroke-dasharray="" stroke-dashoffset="0" font-family="none" font-weight="none" font-size="none" text-anchor="none" style="mix-blend-mode: normal"><g transform="scale(3.2,3.2)"><path d="M0,16c0,-8.83656 7.16344,-16 16,-16h48c8.8366,0 16,7.16344 16,16v48c0,8.8366 -7.1634,16 -16,16h-48c-8.83656,0 -16,-7.1634 -16,-16z" fill-opacity="0.7" fill="url(#color-1)" stroke="none" stroke-width="1"></path><path d="M16,0.44444h48c8.5911,0 15.5556,6.96446 15.5556,15.55556v48c0,8.5911 -6.9645,15.5556 -15.5556,15.5556h-48c-8.5911,0 -15.55556,-6.9645 -15.55556,-15.5556v-48c0,-8.5911 6.96446,-15.55556 15.55556,-15.55556z" fill="none" stroke="#f0eaf8" stroke-width="0.88889"></path><path d="M46.5028,24.1356c0.402,0.2338 0.5898,0.714 0.453,1.1585l-3.6018,11.7059h6.646c0.399,0 0.7598,0.2372 0.918,0.6034c0.1582,0.3662 0.0837,0.7915 -0.1898,1.082l-16,17c-0.3187,0.3387 -0.8289,0.4129 -1.2309,0.1791c-0.4021,-0.2339 -0.5898,-0.714 -0.4531,-1.1586l3.6019,-11.7059h-6.6461c-0.3989,0 -0.7597,-0.2371 -0.918,-0.6033c-0.1582,-0.3663 -0.0836,-0.7915 0.1898,-1.082l16,-17c0.3188,-0.3387 0.829,-0.4129 1.231,-0.1791zM32.3144,41h5.6856c0.3174,0 0.6159,0.1507 0.8044,0.4059c0.1885,0.2553 0.2447,0.5849 0.1514,0.8882l-2.7343,8.8866l11.4641,-12.1807h-5.6856c-0.3173,0 -0.6158,-0.1506 -0.8044,-0.4059c-0.1885,-0.2552 -0.2447,-0.5848 -0.1514,-0.8882l2.7344,-8.8865z" fill="#8f27c7" stroke="none" stroke-width="1"></path></g></g></svg>