<svg version="1.1" xmlns="http://www.w3.org/2000/svg" xmlns:xlink="http://www.w3.org/1999/xlink" width="80" height="80" viewBox="0,0,256,256"><defs><linearGradient x1="40" y1="0" x2="40" y2="80" gradientUnits="userSpaceOnUse" id="color-1"><stop offset="0" stop-color="#f0eaf8"></stop><stop offset="1" stop-color="#f0eaf8"></stop><stop offset="1" stop-color="#f0eaf8"></stop></linearGradient></defs><g fill="none" fill-rule="none" stroke="none" stroke-width="none" stroke-linecap="none" stroke-linejoin="none" stroke-miterlimit="10" stroke-dasharray="" stroke-dashoffset="0" font-family="none" font-weight="none" font-size="none" text-anchor="none" style="mix-blend-mode: normal"><g transform="scale(3.2,3.2)"><path d="M0,16c0,-8.83656 7.16344,-16 16,-16h48c8.8366,0 16,7.16344 16,16v48c0,8.8366 -7.1634,16 -16,16h-48c-8.83656,0 -16,-7.1634 -16,-16z" fill-opacity="0.7" fill="url(#color-1)" fill-rule="nonzero" stroke="none" stroke-width="1" stroke-linecap="butt" stroke-linejoin="miter"></path><path d="M0.44444,16c0,-8.5911 6.96446,-15.55556 15.55556,-15.55556h48c8.5911,0 15.5556,6.96446 15.5556,15.55556v48c0,8.5911 -6.9645,15.5556 -15.5556,15.5556h-48c-8.5911,0 -15.55556,-6.9645 -15.55556,-15.5556z" fill="none" fill-rule="nonzero" stroke="#f0eaf8" stroke-width="0.88889" stroke-linecap="butt" stroke-linejoin="miter"></path><path d="M32.4116,43.7648c0,-0.5198 0.4214,-0.9411 0.9412,-0.9411h3.7647c0.5198,0 0.9412,0.4213 0.9412,0.9411c0,0.5198 -0.4214,0.9412 -0.9412,0.9412h-3.7647c-0.5198,0 -0.9412,-0.4214 -0.9412,-0.9412z" fill="#8f27c7" fill-rule="nonzero" stroke="none" stroke-width="1" stroke-linecap="butt" stroke-linejoin="miter"></path><path d="M32.4116,40.0001c0,-0.5198 0.4214,-0.9411 0.9412,-0.9411h9.4118c0.5198,0 0.9411,0.4213 0.9411,0.9411c0,0.5198 -0.4213,0.9412 -0.9411,0.9412h-9.4118c-0.5198,0 -0.9412,-0.4214 -0.9412,-0.9412z" fill="#8f27c7" fill-rule="nonzero" stroke="none" stroke-width="1" stroke-linecap="butt" stroke-linejoin="miter"></path><path d="M32.4116,36.2354c0,-0.5198 0.4214,-0.9412 0.9412,-0.9412h9.4118c0.5198,0 0.9411,0.4214 0.9411,0.9412c0,0.5198 -0.4213,0.9412 -0.9411,0.9412h-9.4118c-0.5198,0 -0.9412,-0.4214 -0.9412,-0.9412z" fill="#8f27c7" fill-rule="nonzero" stroke="none" stroke-width="1" stroke-linecap="butt" stroke-linejoin="miter"></path><path d="M32.4116,32.4707c0,-0.5198 0.4214,-0.9412 0.9412,-0.9412h9.4118c0.5198,0 0.9411,0.4214 0.9411,0.9412c0,0.5198 -0.4213,0.9412 -0.9411,0.9412h-9.4118c-0.5198,0 -0.9412,-0.4214 -0.9412,-0.9412z" fill="#8f27c7" fill-rule="nonzero" stroke="none" stroke-width="1" stroke-linecap="butt" stroke-linejoin="miter"></path><path d="M28.6471,24h18.8235c2.0792,0 3.7647,1.6855 3.7647,3.7647v22.5882c0,2.0792 -1.6855,3.7647 -3.7647,3.7647h-18.8235c-2.0792,0 -3.7647,-1.6855 -3.7647,-3.7647v-1.8823h1.8823v1.8823c0,1.0396 0.8428,1.8824 1.8824,1.8824h18.8235c1.0396,0 1.8823,-0.8428 1.8823,-1.8824v-22.5882c0,-1.0396 -0.8427,-1.8823 -1.8823,-1.8823h-18.8235c-1.0396,0 -1.8824,0.8427 -1.8824,1.8823v1.8824h-1.8823v-1.8824c0,-2.0792 1.6855,-3.7647 3.7647,-3.7647z" fill="#8f27c7" fill-rule="nonzero" stroke="none" stroke-width="1" stroke-linecap="butt" stroke-linejoin="miter"></path><path d="M24.8824,33.4118v-0.9412c0,-0.5198 0.4213,-0.9412 0.9411,-0.9412c0.5198,0 0.9412,0.4214 0.9412,0.9412v0.9412h0.9412c0.5198,0 0.9412,0.4213 0.9412,0.9411c0,0.5198 -0.4214,0.9412 -0.9412,0.9412h-3.7647c-0.5198,0 -0.9412,-0.4214 -0.9412,-0.9412c0,-0.5198 0.4214,-0.9411 0.9412,-0.9411z" fill="#8f27c7" fill-rule="nonzero" stroke="none" stroke-width="1" stroke-linecap="butt" stroke-linejoin="miter"></path><path d="M24.8824,39.0588v-0.9412c0,-0.5197 0.4213,-0.9411 0.9411,-0.9411c0.5198,0 0.9412,0.4214 0.9412,0.9411v0.9412h0.9412c0.5198,0 0.9412,0.4214 0.9412,0.9412c0,0.5198 -0.4214,0.9412 -0.9412,0.9412h-3.7647c-0.5198,0 -0.9412,-0.4214 -0.9412,-0.9412c0,-0.5198 0.4214,-0.9412 0.9412,-0.9412z" fill="#8f27c7" fill-rule="nonzero" stroke="none" stroke-width="1" stroke-linecap="butt" stroke-linejoin="miter"></path><path d="M24.8824,44.7059v-0.9412c0,-0.5198 0.4213,-0.9412 0.9411,-0.9412c0.5198,0 0.9412,0.4214 0.9412,0.9412v0.9412h0.9412c0.5198,0 0.9412,0.4214 0.9412,0.9412c0,0.5198 -0.4214,0.9411 -0.9412,0.9411h-3.7647c-0.5198,0 -0.9412,-0.4213 -0.9412,-0.9411c0,-0.5198 0.4214,-0.9412 0.9412,-0.9412z" fill="#8f27c7" fill-rule="nonzero" stroke="none" stroke-width="1" stroke-linecap="butt" stroke-linejoin="miter"></path><path d="M28.6471,24h18.8235c2.0792,0 3.7647,1.6855 3.7647,3.7647v22.5882c0,2.0792 -1.6855,3.7647 -3.7647,3.7647h-18.8235c-2.0792,0 -3.7647,-1.6855 -3.7647,-3.7647v-1.8823h1.8823v1.8823c0,1.0396 0.8428,1.8824 1.8824,1.8824h18.8235c1.0396,0 1.8823,-0.8428 1.8823,-1.8824v-22.5882c0,-1.0396 -0.8427,-1.8823 -1.8823,-1.8823h-18.8235c-1.0396,0 -1.8824,0.8427 -1.8824,1.8823v1.8824h-1.8823v-1.8824c0,-2.0792 1.6855,-3.7647 3.7647,-3.7647z" fill="none" fill-rule="nonzero" stroke="#8f27c7" stroke-width="0.2" stroke-linecap="butt" stroke-linejoin="miter"></path><path d="M24.8824,33.4118v-0.9412c0,-0.5198 0.4213,-0.9412 0.9411,-0.9412c0.5198,0 0.9412,0.4214 0.9412,0.9412v0.9412h0.9412c0.5198,0 0.9412,0.4213 0.9412,0.9411c0,0.5198 -0.4214,0.9412 -0.9412,0.9412h-3.7647c-0.5198,0 -0.9412,-0.4214 -0.9412,-0.9412c0,-0.5198 0.4214,-0.9411 0.9412,-0.9411z" fill="none" fill-rule="nonzero" stroke="#8f27c7" stroke-width="0.2" stroke-linecap="butt" stroke-linejoin="miter"></path><path d="M24.8824,39.0588v-0.9412c0,-0.5197 0.4213,-0.9411 0.9411,-0.9411c0.5198,0 0.9412,0.4214 0.9412,0.9411v0.9412h0.9412c0.5198,0 0.9412,0.4214 0.9412,0.9412c0,0.5198 -0.4214,0.9412 -0.9412,0.9412h-3.7647c-0.5198,0 -0.9412,-0.4214 -0.9412,-0.9412c0,-0.5198 0.4214,-0.9412 0.9412,-0.9412z" fill="none" fill-rule="nonzero" stroke="#8f27c7" stroke-width="0.2" stroke-linecap="butt" stroke-linejoin="miter"></path><path d="M24.8824,44.7059v-0.9412c0,-0.5198 0.4213,-0.9412 0.9411,-0.9412c0.5198,0 0.9412,0.4214 0.9412,0.9412v0.9412h0.9412c0.5198,0 0.9412,0.4214 0.9412,0.9412c0,0.5198 -0.4214,0.9411 -0.9412,0.9411h-3.7647c-0.5198,0 -0.9412,-0.4213 -0.9412,-0.9411c0,-0.5198 0.4214,-0.9412 0.9412,-0.9412z" fill="none" fill-rule="nonzero" stroke="#8f27c7" stroke-width="0.2" stroke-linecap="butt" stroke-linejoin="miter"></path><rect x="41.8235" y="39.0588" width="16.9412" height="16.9412" rx="8.47059" ry="0" fill="#f0eaf8" fill-rule="nonzero" stroke="none" stroke-width="1" stroke-linecap="butt" stroke-linejoin="miter"></rect><path d="M52.3468,43.0415l-0.7484,-0.7663c-0.6023,-0.6169 -1.5945,-0.6169 -2.1968,0l-0.7484,0.7663l-1.071,-0.0127c-0.8622,-0.0103 -1.5637,0.6912 -1.5534,1.5534l0.0127,1.071l-0.7663,0.7484c-0.6169,0.6023 -0.6169,1.5945 0,2.1968l0.7663,0.7484l-0.0127,1.071c-0.0103,0.8622 0.6912,1.5637 1.5534,1.5534l1.071,-0.0127l0.7484,0.7663c0.6023,0.6169 1.5945,0.6169 2.1968,0l0.7484,-0.7663l1.071,0.0127c0.8622,0.0103 1.5637,-0.6912 1.5534,-1.5534l-0.0127,-1.071l0.7663,-0.7484c0.6169,-0.6023 0.6169,-1.5945 0,-2.1968l-0.7663,-0.7484l0.0127,-1.071c0.0103,-0.8622 -0.6912,-1.5637 -1.5534,-1.5534zM52.1797,41.7075l0.5053,0.5175l0.7231,-0.0087c1.3185,-0.0157 2.3913,1.0571 2.3756,2.3756l-0.0087,0.7231l0.5175,0.5053c0.9433,0.9211 0.9433,2.4383 0,3.3594l-0.5175,0.5053l0.0087,0.7231c0.0157,1.3185 -1.0571,2.3913 -2.3756,2.3756l-0.7231,-0.0087l-0.5053,0.5175c-0.9211,0.9433 -2.4383,0.9433 -3.3594,0l-0.5053,-0.5175l-0.7231,0.0087c-1.3185,0.0157 -2.3913,-1.0571 -2.3756,-2.3756l0.0087,-0.7231l-0.5175,-0.5053c-0.9433,-0.9211 -0.9433,-2.4383 0,-3.3594l0.5175,-0.5053l-0.0087,-0.7231c-0.0157,-1.3185 1.0571,-2.3913 2.3756,-2.3756l0.7231,0.0087l0.5053,-0.5175c0.9211,-0.9433 2.4383,-0.9433 3.3594,0z" fill="#8f27c7" fill-rule="nonzero" stroke="none" stroke-width="1" stroke-linecap="butt" stroke-linejoin="miter"></path><path d="M52.3468,43.0415l-0.7484,-0.7663c-0.6023,-0.6169 -1.5945,-0.6169 -2.1968,0l-0.7484,0.7663l-1.071,-0.0127c-0.8622,-0.0103 -1.5637,0.6912 -1.5534,1.5534l0.0127,1.071l-0.7663,0.7484c-0.6169,0.6023 -0.6169,1.5945 0,2.1968l0.7663,0.7484l-0.0127,1.071c-0.0103,0.8622 0.6912,1.5637 1.5534,1.5534l1.071,-0.0127l0.7484,0.7663c0.6023,0.6169 1.5945,0.6169 2.1968,0l0.7484,-0.7663l1.071,0.0127c0.8622,0.0103 1.5637,-0.6912 1.5534,-1.5534l-0.0127,-1.071l0.7663,-0.7484c0.6169,-0.6023 0.6169,-1.5945 0,-2.1968l-0.7663,-0.7484l0.0127,-1.071c0.0103,-0.8622 -0.6912,-1.5637 -1.5534,-1.5534zM52.1797,41.7075l0.5053,0.5175l0.7231,-0.0087c1.3185,-0.0157 2.3913,1.0571 2.3756,2.3756l-0.0087,0.7231l0.5175,0.5053c0.9433,0.9211 0.9433,2.4383 0,3.3594l-0.5175,0.5053l0.0087,0.7231c0.0157,1.3185 -1.0571,2.3913 -2.3756,2.3756l-0.7231,-0.0087l-0.5053,0.5175c-0.9211,0.9433 -2.4383,0.9433 -3.3594,0l-0.5053,-0.5175l-0.7231,0.0087c-1.3185,0.0157 -2.3913,-1.0571 -2.3756,-2.3756l0.0087,-0.7231l-0.5175,-0.5053c-0.9433,-0.9211 -0.9433,-2.4383 0,-3.3594l0.5175,-0.5053l-0.0087,-0.7231c-0.0157,-1.3185 1.0571,-2.3913 2.3756,-2.3756l0.7231,0.0087l0.5053,-0.5175c0.9211,-0.9433 2.4383,-0.9433 3.3594,0z" fill="none" fill-rule="nonzero" stroke="#8f27c7" stroke-width="1" stroke-linecap="butt" stroke-linejoin="miter"></path><path d="M46,43.5l-0.5,2l-1,2v1l1.5,1v1.5l0.5,1h2l0.5,0.5l1.5,1l1,-0.5l1,-1l1.5,0.5l1,-1v-2l0.5,-0.5l1,-1v-1l-1,-1v-1.5l-1,-1.5h-2l-1,-1l-1,-0.5l-2,1z" fill="#8f27c7" fill-rule="nonzero" stroke="none" stroke-width="1" stroke-linecap="butt" stroke-linejoin="miter"></path><path d="M52.7065,45.7623c0.183,0.1831 0.183,0.4798 0,0.6629l-2.8125,2.8125c-0.088,0.0879 -0.2072,0.1373 -0.3315,0.1373c-0.1243,0 -0.2435,-0.0494 -0.3315,-0.1373l-1.4062,-1.4062c-0.1831,-0.1831 -0.1831,-0.4799 0,-0.663c0.1831,-0.183 0.4798,-0.183 0.6629,0l1.0748,1.0748l2.481,-2.481c0.1831,-0.1831 0.4799,-0.1831 0.663,0z" fill="#ffffff" fill-rule="evenodd" stroke="#f0eaf8" stroke-width="0.2" stroke-linecap="round" stroke-linejoin="round"></path></g></g></svg>