<svg version="1.1" xmlns="http://www.w3.org/2000/svg" xmlns:xlink="http://www.w3.org/1999/xlink" width="80" height="80" viewBox="0,0,256,256"><defs><linearGradient x1="40" y1="0" x2="40" y2="80" gradientUnits="userSpaceOnUse" id="color-1"><stop offset="0" stop-color="#f0eaf8"></stop><stop offset="1" stop-color="#f0eaf8"></stop><stop offset="1" stop-color="#f0eaf8"></stop></linearGradient></defs><g fill="none" fill-rule="nonzero" stroke="none" stroke-width="none" stroke-linecap="butt" stroke-linejoin="miter" stroke-miterlimit="10" stroke-dasharray="" stroke-dashoffset="0" font-family="none" font-weight="none" font-size="none" text-anchor="none" style="mix-blend-mode: normal"><g transform="scale(3.2,3.2)"><rect x="0" y="0" width="80" height="80" rx="12" ry="0" fill-opacity="0.7" fill="url(#color-1)" stroke="none" stroke-width="1"></rect><rect x="0.44444" y="0.44444" width="79.1111" height="79.1111" rx="11.5556" ry="0" fill="none" stroke="#f0eaf8" stroke-width="0.88889"></rect><path d="M35.6759,27.1817c-2.172,0.5887 -4.3716,1.2848 -5.6735,1.7096c-0.3581,0.1169 -0.6097,0.427 -0.6569,0.7815c-1.1077,8.313 1.4518,14.3805 4.5058,18.3758c1.5333,2.0059 3.1923,3.4895 4.5754,4.4648c0.6921,0.4881 1.3039,0.841 1.7847,1.0673c0.2407,0.1133 0.4376,0.1897 0.5871,0.236c0.1231,0.0382 0.1865,0.0472 0.2015,0.0493c0.0151,-0.0021 0.0784,-0.0111 0.2015,-0.0493c0.1495,-0.0463 0.3464,-0.1227 0.5871,-0.236c0.4808,-0.2263 1.0926,-0.5792 1.7847,-1.0673c1.3831,-0.9753 3.0421,-2.4589 4.5754,-4.4648c3.054,-3.9953 5.6135,-10.0628 4.5058,-18.3758c-0.0472,-0.3545 -0.2988,-0.6646 -0.6569,-0.7815c-1.3019,-0.4248 -3.5015,-1.1209 -5.6735,-1.7096c-2.2207,-0.602 -4.2624,-1.0484 -5.3241,-1.0484c-1.0617,0 -3.1034,0.4464 -5.3241,1.0484zM35.1433,25.1193c2.1715,-0.5886 4.4777,-1.1193 5.8567,-1.1193c1.379,0 3.6852,0.5307 5.8567,1.1193c2.2202,0.6018 4.457,1.3099 5.7727,1.7393c1.0981,0.3583 1.9286,1.3286 2.0881,2.5256c1.1933,8.9546 -1.5736,15.5895 -4.9295,19.9798c-1.6717,2.1868 -3.4885,3.8167 -5.0342,4.9067c-0.7723,0.5447 -1.4881,0.9624 -2.0959,1.2485c-0.5616,0.2644 -1.1625,0.4808 -1.6579,0.4808c-0.4954,0 -1.0963,-0.2164 -1.6579,-0.4808c-0.6078,-0.2861 -1.3236,-0.7038 -2.0959,-1.2485c-1.5457,-1.09 -3.3625,-2.7199 -5.0342,-4.9067c-3.3559,-4.3903 -6.1228,-11.0252 -4.9295,-19.9798c0.1595,-1.197 0.99,-2.1673 2.0881,-2.5256c1.3157,-0.4294 3.5525,-1.1375 5.7727,-1.7393z" fill="#8f27c7" stroke="none" stroke-width="1"></path></g></g></svg>