<svg version="1.1" xmlns="http://www.w3.org/2000/svg" xmlns:xlink="http://www.w3.org/1999/xlink" width="80" height="80" viewBox="0,0,256,256"><defs><linearGradient x1="40" y1="0" x2="40" y2="80" gradientUnits="userSpaceOnUse" id="color-1"><stop offset="0" stop-color="#f0eaf8"></stop><stop offset="1" stop-color="#f0eaf8"></stop><stop offset="1" stop-color="#f0eaf8"></stop></linearGradient></defs><g fill="none" fill-rule="none" stroke="none" stroke-width="none" stroke-linecap="butt" stroke-linejoin="miter" stroke-miterlimit="10" stroke-dasharray="" stroke-dashoffset="0" font-family="none" font-weight="none" font-size="none" text-anchor="none" style="mix-blend-mode: normal"><g transform="scale(3.2,3.2)"><path d="M0,16c0,-8.83656 7.16344,-16 16,-16h48c8.8366,0 16,7.16344 16,16v48c0,8.8366 -7.1634,16 -16,16h-48c-8.83656,0 -16,-7.1634 -16,-16z" fill-opacity="0.7" fill="url(#color-1)" fill-rule="nonzero" stroke="none" stroke-width="1"></path><path d="M16,0.44444h48c8.5911,0 15.5556,6.96446 15.5556,15.55556v48c0,8.5911 -6.9645,15.5556 -15.5556,15.5556h-48c-8.5911,0 -15.55556,-6.9645 -15.55556,-15.5556v-48c0,-8.5911 6.96446,-15.55556 15.55556,-15.55556z" fill="none" fill-rule="nonzero" stroke="#f0eaf8" stroke-width="0.88889"></path><path d="M29.9305,48.3907c0.0568,-0.5932 -0.1539,-1.1808 -0.5747,-1.6028c-2.1212,-2.1271 -3.3558,-4.8517 -3.3558,-7.7879c0,-6.3849 6.0088,-12 14,-12c7.9912,0 14,5.6151 14,12c0,6.3849 -6.0088,12 -14,12c-1.4585,0 -2.8607,-0.1912 -4.1764,-0.544c-0.476,-0.1276 -0.9824,-0.075 -1.422,0.1477c-0.7744,0.3925 -2.4783,1.1405 -5.2681,1.7853c0.3765,-1.2853 0.6697,-2.6688 0.797,-3.9983zM28.3293,54.6059l0.0405,-0.008c3.6589,-0.7253 5.8969,-1.6837 6.9359,-2.2101c1.4845,0.398 3.0608,0.6122 4.6943,0.6122c8.8366,0 16,-6.268 16,-14c0,-7.732 -7.1634,-14 -16,-14c-8.8366,0 -16,6.268 -16,14c0,3.5217 1.4861,6.7398 3.9396,9.2001c-0.1477,1.5421 -0.5512,3.1967 -1.0466,4.6361l-0.0078,0.0226c-0.0603,0.1745 -0.1219,0.3458 -0.1846,0.5133c-0.0987,0.2637 -0.1999,0.5181 -0.3026,0.7607c-0.1573,0.3715 0.1474,0.7879 0.5454,0.7227c0.2819,-0.0461 0.5566,-0.0938 0.8242,-0.1429c0.1908,-0.0349 0.3781,-0.0705 0.5617,-0.1067zM40,34.9855c3.3288,-3.4215 11.6507,2.5661 0,10.2645c-11.6507,-7.6984 -3.3288,-13.686 0,-10.2645z" fill="#8f27c7" fill-rule="evenodd" stroke="none" stroke-width="1"></path></g></g></svg>