<svg version="1.1" xmlns="http://www.w3.org/2000/svg" xmlns:xlink="http://www.w3.org/1999/xlink" width="80" height="80" viewBox="0,0,256,256"><defs><linearGradient x1="40" y1="0" x2="40" y2="80" gradientUnits="userSpaceOnUse" id="color-1"><stop offset="0" stop-color="#f0eaf8"></stop><stop offset="1" stop-color="#f0eaf8"></stop><stop offset="1" stop-color="#f0eaf8"></stop></linearGradient></defs><g fill="none" fill-rule="nonzero" stroke="none" stroke-width="none" stroke-linecap="butt" stroke-linejoin="miter" stroke-miterlimit="10" stroke-dasharray="" stroke-dashoffset="0" font-family="none" font-weight="none" font-size="none" text-anchor="none" style="mix-blend-mode: normal"><g transform="scale(3.2,3.2)"><path d="M0,16c0,-8.83656 7.16344,-16 16,-16h48c8.8366,0 16,7.16344 16,16v48c0,8.8366 -7.1634,16 -16,16h-48c-8.83656,0 -16,-7.1634 -16,-16z" fill-opacity="0.7" fill="url(#color-1)" stroke="none" stroke-width="1"></path><path d="M16,0.44444h48c8.5911,0 15.5556,6.96446 15.5556,15.55556v48c0,8.5911 -6.9645,15.5556 -15.5556,15.5556h-48c-8.5911,0 -15.55556,-6.9645 -15.55556,-15.5556v-48c0,-8.5911 6.96446,-15.55556 15.55556,-15.55556z" fill="none" stroke="#f0eaf8" stroke-width="0.88889"></path><path d="M24,31c0,-1.6569 1.3431,-3 3,-3h18c1.6569,0 3,1.3431 3,3v3h2.0387c0.9114,0 1.7733,0.4143 2.3427,1.1259l2.9612,3.7016c0.4256,0.5319 0.6574,1.1928 0.6574,1.8741v4.2984c0,1.6569 -1.3431,3 -3,3h-1c0,2.2091 -1.7909,4 -4,4c-2.2091,0 -4,-1.7909 -4,-4h-10c0,2.2091 -1.7909,4 -4,4c-2.2091,0 -4,-1.7909 -4,-4c0,-0.0568 0.0012,-0.1133 0.0035,-0.1695c-1.167,-0.4108 -2.0035,-1.523 -2.0035,-2.8305zM26.5879,45.9114c0.7033,-1.1466 1.9684,-1.9114 3.4121,-1.9114c1.4806,0 2.7733,0.8044 3.4649,2h11.0702c0.3513,-0.6073 0.8576,-1.1136 1.4649,-1.4649v-13.5351c0,-0.5523 -0.4477,-1 -1,-1h-18c-0.5523,0 -1,0.4477 -1,1v14c0,0.4054 0.2412,0.7544 0.5879,0.9114zM48,44c1.4806,0 2.7733,0.8044 3.4649,2h1.5351c0.5523,0 1,-0.4477 1,-1v-4.2984c0,-0.2271 -0.0773,-0.4474 -0.2191,-0.6247l-2.9613,-3.7016c-0.1898,-0.2372 -0.4771,-0.3753 -0.7809,-0.3753h-2.0387zM30,46c-1.1046,0 -2,0.8954 -2,2c0,1.1046 0.8954,2 2,2c1.1046,0 2,-0.8954 2,-2c0,-1.1046 -0.8954,-2 -2,-2zM48,46c-1.1046,0 -2,0.8954 -2,2c0,1.1046 0.8954,2 2,2c1.1046,0 2,-0.8954 2,-2c0,-1.1046 -0.8954,-2 -2,-2z" fill="#8f27c7" stroke="none" stroke-width="1"></path></g></g></svg>