<svg version="1.1" xmlns="http://www.w3.org/2000/svg" xmlns:xlink="http://www.w3.org/1999/xlink" width="80" height="80" viewBox="0,0,256,256"><defs><linearGradient x1="40" y1="0" x2="40" y2="80" gradientUnits="userSpaceOnUse" id="color-1"><stop offset="0" stop-color="#f0eaf8"></stop><stop offset="1" stop-color="#f0eaf8"></stop><stop offset="1" stop-color="#f0eaf8"></stop></linearGradient></defs><g fill="none" fill-rule="none" stroke="none" stroke-width="none" stroke-linecap="butt" stroke-linejoin="miter" stroke-miterlimit="10" stroke-dasharray="" stroke-dashoffset="0" font-family="none" font-weight="none" font-size="none" text-anchor="none" style="mix-blend-mode: normal"><g transform="scale(3.2,3.2)"><path d="M0,16c0,-8.83656 7.16344,-16 16,-16h48c8.8366,0 16,7.16344 16,16v48c0,8.8366 -7.1634,16 -16,16h-48c-8.83656,0 -16,-7.1634 -16,-16z" fill-opacity="0.7" fill="url(#color-1)" fill-rule="nonzero" stroke="none" stroke-width="1"></path><path d="M16,0.44444h48c8.5911,0 15.5556,6.96446 15.5556,15.55556v48c0,8.5911 -6.9645,15.5556 -15.5556,15.5556h-48c-8.5911,0 -15.55556,-6.9645 -15.55556,-15.5556v-48c0,-8.5911 6.96446,-15.55556 15.55556,-15.55556z" fill="none" fill-rule="nonzero" stroke="#f0eaf8" stroke-width="0.88889"></path><path d="M36,31c0,-1.6569 1.3431,-3 3,-3h2c1.6569,0 3,1.3431 3,3v2c0,1.6569 -1.3431,3 -3,3v2h11c0.5523,0 1,0.4477 1,1v2c0,0.5523 -0.4477,1 -1,1c-0.5523,0 -1,-0.4477 -1,-1v-1h-10v1c0,0.5523 -0.4477,1 -1,1c-0.5523,0 -1,-0.4477 -1,-1v-1h-10v1c0,0.5523 -0.4477,1 -1,1c-0.5523,0 -1,-0.4477 -1,-1v-2c0,-0.5523 0.4477,-1 1,-1h11v-2c-1.6569,0 -3,-1.3431 -3,-3zM41,34c0.5523,0 1,-0.4477 1,-1v-2c0,-0.5523 -0.4477,-1 -1,-1h-2c-0.5523,0 -1,0.4477 -1,1v2c0,0.5523 0.4477,1 1,1zM24,47c0,-1.6569 1.3431,-3 3,-3h2c1.6569,0 3,1.3431 3,3v2c0,1.6569 -1.3431,3 -3,3h-2c-1.6569,0 -3,-1.3431 -3,-3zM27,46c-0.5523,0 -1,0.4477 -1,1v2c0,0.5523 0.4477,1 1,1h2c0.5523,0 1,-0.4477 1,-1v-2c0,-0.5523 -0.4477,-1 -1,-1zM36,47c0,-1.6569 1.3431,-3 3,-3h2c1.6569,0 3,1.3431 3,3v2c0,1.6569 -1.3431,3 -3,3h-2c-1.6569,0 -3,-1.3431 -3,-3zM39,46c-0.5523,0 -1,0.4477 -1,1v2c0,0.5523 0.4477,1 1,1h2c0.5523,0 1,-0.4477 1,-1v-2c0,-0.5523 -0.4477,-1 -1,-1zM48,47c0,-1.6569 1.3431,-3 3,-3h2c1.6569,0 3,1.3431 3,3v2c0,1.6569 -1.3431,3 -3,3h-2c-1.6569,0 -3,-1.3431 -3,-3zM51,46c-0.5523,0 -1,0.4477 -1,1v2c0,0.5523 0.4477,1 1,1h2c0.5523,0 1,-0.4477 1,-1v-2c0,-0.5523 -0.4477,-1 -1,-1z" fill="#8f27c7" fill-rule="evenodd" stroke="none" stroke-width="1"></path></g></g></svg>