<svg width="50" height="36" viewBox="0 0 50 36" fill="none" xmlns="http://www.w3.org/2000/svg">
<rect width="50" height="36" rx="3.36449" fill="white"/>
<mask id="mask0_104_326" style="mask-type:luminance" maskUnits="userSpaceOnUse" x="0" y="0" width="50" height="36">
<rect width="50" height="36" rx="3.36449" fill="white"/>
</mask>
<g mask="url(#mask0_104_326)">
<path fill-rule="evenodd" clip-rule="evenodd" d="M50 0H0V2.4H50V0ZM50 4.80031H0V7.20031H50V4.80031ZM0 9.60061H50V12.0006H0V9.60061ZM50 14.3993H0V16.7993H50V14.3993ZM0 19.1996H50V21.5996H0V19.1996ZM50 23.9999H0V26.3999H50V23.9999ZM0 28.8002H50V31.2002H0V28.8002ZM50 33.6005H0V36.0005H50V33.6005Z" fill="#D02F44"/>
<rect width="21.4286" height="16.8" fill="#46467F"/>
<g filter="url(#filter0_d_104_326)">
<path fill-rule="evenodd" clip-rule="evenodd" d="M4.7623 3.59992C4.7623 4.26266 4.22931 4.79992 3.57182 4.79992C2.91434 4.79992 2.38135 4.26266 2.38135 3.59992C2.38135 2.93718 2.91434 2.39992 3.57182 2.39992C4.22931 2.39992 4.7623 2.93718 4.7623 3.59992ZM9.52318 3.59992C9.52318 4.26266 8.99018 4.79992 8.3327 4.79992C7.67522 4.79992 7.14223 4.26266 7.14223 3.59992C7.14223 2.93718 7.67522 2.39992 8.3327 2.39992C8.99018 2.39992 9.52318 2.93718 9.52318 3.59992ZM13.0969 4.79992C13.7543 4.79992 14.2873 4.26266 14.2873 3.59992C14.2873 2.93718 13.7543 2.39992 13.0969 2.39992C12.4394 2.39992 11.9064 2.93718 11.9064 3.59992C11.9064 4.26266 12.4394 4.79992 13.0969 4.79992ZM19.0482 3.59992C19.0482 4.26266 18.5152 4.79992 17.8577 4.79992C17.2003 4.79992 16.6673 4.26266 16.6673 3.59992C16.6673 2.93718 17.2003 2.39992 17.8577 2.39992C18.5152 2.39992 19.0482 2.93718 19.0482 3.59992ZM5.95391 7.20007C6.61139 7.20007 7.14438 6.66281 7.14438 6.00007C7.14438 5.33733 6.61139 4.80007 5.95391 4.80007C5.29642 4.80007 4.76343 5.33733 4.76343 6.00007C4.76343 6.66281 5.29642 7.20007 5.95391 7.20007ZM11.9053 6.00007C11.9053 6.66281 11.3723 7.20007 10.7148 7.20007C10.0573 7.20007 9.52431 6.66281 9.52431 6.00007C9.52431 5.33733 10.0573 4.80007 10.7148 4.80007C11.3723 4.80007 11.9053 5.33733 11.9053 6.00007ZM15.4757 7.20007C16.1331 7.20007 16.6661 6.66281 16.6661 6.00007C16.6661 5.33733 16.1331 4.80007 15.4757 4.80007C14.8182 4.80007 14.2852 5.33733 14.2852 6.00007C14.2852 6.66281 14.8182 7.20007 15.4757 7.20007ZM19.0482 8.40022C19.0482 9.06297 18.5152 9.60022 17.8577 9.60022C17.2003 9.60022 16.6673 9.06297 16.6673 8.40022C16.6673 7.73748 17.2003 7.20022 17.8577 7.20022C18.5152 7.20022 19.0482 7.73748 19.0482 8.40022ZM13.0969 9.60022C13.7543 9.60022 14.2873 9.06297 14.2873 8.40022C14.2873 7.73748 13.7543 7.20022 13.0969 7.20022C12.4394 7.20022 11.9064 7.73748 11.9064 8.40022C11.9064 9.06297 12.4394 9.60022 13.0969 9.60022ZM9.52318 8.40022C9.52318 9.06297 8.99018 9.60022 8.3327 9.60022C7.67522 9.60022 7.14223 9.06297 7.14223 8.40022C7.14223 7.73748 7.67522 7.20022 8.3327 7.20022C8.99018 7.20022 9.52318 7.73748 9.52318 8.40022ZM3.57182 9.60022C4.22931 9.60022 4.7623 9.06297 4.7623 8.40022C4.7623 7.73748 4.22931 7.20022 3.57182 7.20022C2.91434 7.20022 2.38135 7.73748 2.38135 8.40022C2.38135 9.06297 2.91434 9.60022 3.57182 9.60022ZM7.14438 10.8004C7.14438 11.4631 6.61139 12.0004 5.95391 12.0004C5.29642 12.0004 4.76343 11.4631 4.76343 10.8004C4.76343 10.1376 5.29642 9.60038 5.95391 9.60038C6.61139 9.60038 7.14438 10.1376 7.14438 10.8004ZM10.7148 12.0004C11.3723 12.0004 11.9053 11.4631 11.9053 10.8004C11.9053 10.1376 11.3723 9.60038 10.7148 9.60038C10.0573 9.60038 9.52431 10.1376 9.52431 10.8004C9.52431 11.4631 10.0573 12.0004 10.7148 12.0004ZM16.6661 10.8004C16.6661 11.4631 16.1331 12.0004 15.4757 12.0004C14.8182 12.0004 14.2852 11.4631 14.2852 10.8004C14.2852 10.1376 14.8182 9.60038 15.4757 9.60038C16.1331 9.60038 16.6661 10.1376 16.6661 10.8004ZM17.8577 14.4005C18.5152 14.4005 19.0482 13.8633 19.0482 13.2005C19.0482 12.5378 18.5152 12.0005 17.8577 12.0005C17.2003 12.0005 16.6673 12.5378 16.6673 13.2005C16.6673 13.8633 17.2003 14.4005 17.8577 14.4005ZM14.2873 13.2005C14.2873 13.8633 13.7543 14.4005 13.0969 14.4005C12.4394 14.4005 11.9064 13.8633 11.9064 13.2005C11.9064 12.5378 12.4394 12.0005 13.0969 12.0005C13.7543 12.0005 14.2873 12.5378 14.2873 13.2005ZM8.3327 14.4005C8.99018 14.4005 9.52318 13.8633 9.52318 13.2005C9.52318 12.5378 8.99018 12.0005 8.3327 12.0005C7.67522 12.0005 7.14223 12.5378 7.14223 13.2005C7.14223 13.8633 7.67522 14.4005 8.3327 14.4005ZM4.7623 13.2005C4.7623 13.8633 4.22931 14.4005 3.57182 14.4005C2.91434 14.4005 2.38135 13.8633 2.38135 13.2005C2.38135 12.5378 2.91434 12.0005 3.57182 12.0005C4.22931 12.0005 4.7623 12.5378 4.7623 13.2005Z" fill="url(#paint0_linear_104_326)"/>
</g>
</g>
<defs>
<filter id="filter0_d_104_326" x="2.38135" y="2.39992" width="16.667" height="13.6829" filterUnits="userSpaceOnUse" color-interpolation-filters="sRGB">
<feFlood flood-opacity="0" result="BackgroundImageFix"/>
<feColorMatrix in="SourceAlpha" type="matrix" values="0 0 0 0 0 0 0 0 0 0 0 0 0 0 0 0 0 0 127 0" result="hardAlpha"/>
<feOffset dy="1.68224"/>
<feColorMatrix type="matrix" values="0 0 0 0 0 0 0 0 0 0 0 0 0 0 0 0 0 0 0.06 0"/>
<feBlend mode="normal" in2="BackgroundImageFix" result="effect1_dropShadow_104_326"/>
<feBlend mode="normal" in="SourceGraphic" in2="effect1_dropShadow_104_326" result="shape"/>
</filter>
<linearGradient id="paint0_linear_104_326" x1="2.38135" y1="2.39992" x2="2.38135" y2="14.4005" gradientUnits="userSpaceOnUse">
<stop stop-color="white"/>
<stop offset="1" stop-color="#F0F0F0"/>
</linearGradient>
</defs>
</svg>
