<svg width="125" height="33" viewBox="0 0 125 33" fill="none" xmlns="http://www.w3.org/2000/svg">
<path d="M20.1404 16.0888C20.1074 12.4368 23.1404 10.6608 23.2684 10.5888C21.5564 8.09275 18.9034 7.75175 17.9704 7.72475C15.7404 7.48975 13.5704 9.05875 12.4444 9.05875C11.2864 9.05875 9.53842 7.75875 7.64442 7.78675C5.21942 7.82375 2.95142 9.22675 1.70742 11.4067C-0.859577 15.8517 1.05442 22.3837 3.51442 25.9767C4.74442 27.7367 6.18242 29.7007 8.06442 29.6317C9.90442 29.5557 10.5944 28.4577 12.8144 28.4577C15.0144 28.4577 15.6614 29.6318 17.5814 29.5877C19.5574 29.5557 20.8014 27.8208 21.9884 26.0448C23.4104 24.0278 23.9814 22.0417 24.0044 21.9398C23.9584 21.9237 20.1674 20.4767 20.1294 16.0998L20.1404 16.0888ZM16.5144 5.35175C17.5144 4.11375 18.1824 2.42875 17.9944 0.71875C16.5614 0.78175 14.7684 1.71875 13.7364 2.92175C12.8234 3.98875 12.0064 5.73875 12.2184 7.38375C13.8184 7.50375 15.4814 6.57175 16.5144 5.35375V5.35175ZM35.5464 11.2188C36.5984 11.2188 37.4664 11.0528 38.1464 10.7208C38.8264 10.3888 39.3464 9.89675 39.6704 9.24475C39.9944 8.59275 40.1704 7.78675 40.1704 6.82675C40.1704 5.91075 40.0154 5.13875 39.7054 4.51075C39.3954 3.88275 38.9094 3.40375 38.2474 3.07375C37.5854 2.74375 36.7224 2.57075 35.6474 2.55375L35.0414 2.54375C34.8214 2.54175 34.6094 2.54175 34.4054 2.54375H33.8854L33.6304 2.54075V11.2188H35.5324H35.5464ZM35.5464 10.2647H34.7844V3.49675H35.5844C36.3004 3.49675 36.9124 3.60175 37.4204 3.81175C37.9196 4.01403 38.3324 4.38438 38.5874 4.85875C38.8574 5.34575 38.9924 6.00875 38.9924 6.84475C38.9924 7.68075 38.8524 8.34875 38.5754 8.84875C38.313 9.33458 37.8929 9.71655 37.3844 9.93175C36.8684 10.1537 36.2524 10.2647 35.5364 10.2647H35.5464ZM44.2044 11.3388C44.8204 11.3388 45.3374 11.2038 45.7544 10.9338C46.1749 10.6609 46.5048 10.2694 46.7024 9.80875C46.9164 9.32875 47.0224 8.77275 47.0224 8.14075C47.0224 7.44475 46.9064 6.85475 46.6744 6.37075C46.4661 5.91312 46.1241 5.52928 45.6934 5.26975C45.2714 5.01975 44.7734 4.89475 44.1934 4.89475C43.5854 4.89475 43.0684 5.02975 42.6434 5.29975C42.2142 5.57352 41.8767 5.96951 41.6744 6.43675C41.4544 6.92475 41.3444 7.49275 41.3444 8.14075C41.3444 8.82875 41.4624 9.41075 41.6984 9.88675C41.9344 10.3627 42.2664 10.7237 42.6944 10.9697C43.1224 11.2157 43.6224 11.3398 44.1944 11.3398L44.2044 11.3388ZM44.2044 10.4627C43.7924 10.4627 43.4584 10.3587 43.2024 10.1507C42.9464 9.94275 42.7584 9.65075 42.6384 9.30475C42.5134 8.92137 42.4526 8.51996 42.4584 8.11675C42.4584 7.62475 42.5254 7.20275 42.6584 6.85075C42.7914 6.49875 42.9884 6.23075 43.2584 6.04375C43.5284 5.85675 43.8364 5.76375 44.2124 5.76375C44.6204 5.76375 44.9524 5.86775 45.2054 6.07575C45.4584 6.28375 45.6454 6.57575 45.7604 6.91875C45.881 7.30613 45.9397 7.71009 45.9344 8.11575C45.9344 8.59975 45.8684 9.01775 45.7364 9.36975C45.6044 9.72175 45.4104 9.99175 45.1544 10.1698C44.8984 10.3478 44.5844 10.4517 44.2124 10.4517L44.2044 10.4627ZM50.6894 11.2188L52.0334 6.64075L53.4484 11.2188H54.5404L56.4184 5.01475H55.3804L54.0184 9.77275H53.9224L52.4704 5.01475H51.6304L50.2324 9.78475H50.1364L48.7144 5.01475H47.6984L49.6124 11.2188H50.6984H50.6894ZM58.7874 11.2188V7.07275C58.7874 6.79675 58.8634 6.56775 59.0154 6.38575C59.1674 6.20375 59.3654 6.06775 59.6094 5.97775C59.8534 5.88775 60.1154 5.84275 60.3954 5.84275C60.7994 5.84275 61.1284 5.95975 61.3824 6.19275C61.6364 6.42575 61.7624 6.78575 61.7624 7.26975V11.2197H62.8624V7.16375C62.8624 6.64375 62.7624 6.21875 62.5654 5.88875C62.3811 5.57108 62.105 5.3166 61.7734 5.15875C61.4345 5.00073 61.0644 4.92076 60.6904 4.92475C60.3584 4.92475 60.0654 4.97075 59.8104 5.06275C59.5554 5.15475 59.3404 5.27675 59.1624 5.42875C58.9844 5.58075 58.8454 5.74275 58.7454 5.91475V5.01475H57.6714V11.2188H58.7754H58.7874ZM66.1734 11.2967C66.264 11.2957 66.3544 11.2867 66.4434 11.2698C66.5434 11.2518 66.6394 11.2298 66.7314 11.1998V10.4797L66.3954 10.4737C66.2963 10.4708 66.199 10.4461 66.1104 10.4016C66.0217 10.357 65.9439 10.2936 65.8824 10.2157C65.7604 10.0597 65.6994 9.81575 65.6994 9.51375V2.30375H64.6084V9.62375C64.6084 9.83975 64.6284 10.0487 64.6654 10.2507C64.7024 10.4527 64.7774 10.6308 64.8874 10.7878C64.9974 10.9447 65.1554 11.0677 65.3614 11.1597C65.5674 11.2517 65.8384 11.2978 66.1744 11.2978L66.1734 11.2967ZM70.5434 11.3388C71.1594 11.3388 71.6764 11.2038 72.0934 10.9338C72.5139 10.6609 72.8438 10.2694 73.0414 9.80875C73.2554 9.32875 73.3614 8.77275 73.3614 8.14075C73.3614 7.44475 73.2454 6.85475 73.0134 6.37075C72.8051 5.91312 72.4631 5.52928 72.0324 5.26975C71.6104 5.01975 71.1124 4.89475 70.5324 4.89475C69.9244 4.89475 69.4074 5.02975 68.9824 5.29975C68.5532 5.57352 68.2157 5.96951 68.0134 6.43675C67.7934 6.92475 67.6834 7.49275 67.6834 8.14075C67.6834 8.82875 67.8014 9.41075 68.0374 9.88675C68.2734 10.3627 68.6054 10.7237 69.0334 10.9697C69.4614 11.2157 69.9614 11.3398 70.5334 11.3398L70.5434 11.3388ZM70.5434 10.4627C70.1314 10.4627 69.7974 10.3587 69.5414 10.1507C69.2854 9.94275 69.0974 9.65075 68.9774 9.30475C68.8524 8.92137 68.7916 8.51996 68.7974 8.11675C68.7974 7.62475 68.8644 7.20275 68.9974 6.85075C69.1304 6.49875 69.3274 6.23075 69.5974 6.04375C69.8674 5.85675 70.1754 5.76375 70.5514 5.76375C70.9594 5.76375 71.2914 5.86775 71.5444 6.07575C71.7974 6.28375 71.9844 6.57575 72.0994 6.91875C72.22 7.30613 72.2787 7.71009 72.2734 8.11575C72.2734 8.59975 72.2074 9.01775 72.0754 9.36975C71.9434 9.72175 71.7494 9.99175 71.4934 10.1698C71.2374 10.3478 70.9234 10.4517 70.5514 10.4517L70.5434 10.4627ZM76.4584 11.3388C76.8817 11.3435 77.3002 11.2479 77.6794 11.0597C78.0494 10.8737 78.3544 10.5398 78.5944 10.0548L78.6724 11.2188H79.6204V6.88675C79.6204 6.45475 79.5204 6.09075 79.3534 5.79475C79.165 5.48982 78.8829 5.25407 78.5494 5.12275C78.1914 4.97075 77.7424 4.89475 77.2024 4.89475C76.7024 4.89475 76.2694 4.96675 75.9024 5.11075C75.5354 5.25475 75.2524 5.46575 75.0474 5.74375C74.8424 6.02175 74.7294 6.36375 74.7054 6.76675H75.6834C75.7634 6.39475 75.9384 6.12675 76.2084 5.96275C76.4784 5.79875 76.7914 5.71475 77.1484 5.71075C77.6284 5.71075 77.9824 5.81075 78.2104 6.04375C78.4384 6.27675 78.5524 6.56675 78.5524 6.94675V7.43275L77.4524 7.46275C76.3924 7.48675 75.6224 7.66675 75.1524 8.00275C74.6824 8.33875 74.4324 8.85075 74.4324 9.53875C74.4324 9.91875 74.5194 10.2428 74.6924 10.5107C74.8689 10.7814 75.12 10.995 75.4154 11.1257C75.7234 11.2677 76.0774 11.3388 76.4774 11.3388H76.4584ZM76.7944 10.5408C76.4104 10.5408 76.0974 10.4427 75.8544 10.2467C75.6114 10.0507 75.4914 9.77875 75.4914 9.43075C75.4914 9.12675 75.5714 8.88075 75.7284 8.69275C75.8854 8.50475 76.1244 8.36675 76.4424 8.27875C76.7604 8.19075 77.1554 8.14275 77.6274 8.13475L78.5514 8.11675V9.17875C78.5474 9.35075 78.4944 9.51875 78.3914 9.67875C78.2822 9.84853 78.1429 9.99696 77.9804 10.1168C77.8076 10.2473 77.6166 10.3518 77.4134 10.4268C77.2064 10.5037 77.0014 10.5408 76.7944 10.5408ZM83.7544 11.3388C84.1184 11.3388 84.4244 11.2907 84.6744 11.1947C84.9244 11.0988 85.1294 10.9748 85.2894 10.8248C85.4494 10.6748 85.5734 10.5207 85.6614 10.3627C85.738 10.2299 85.8022 10.0903 85.8534 9.94575L85.9734 11.2178H86.8194V2.30275H85.7034V5.99875C85.6387 5.87548 85.5591 5.76062 85.4664 5.65675C85.3454 5.52005 85.2076 5.39911 85.0564 5.29675C84.8894 5.18075 84.6894 5.08475 84.4594 5.00875C84.2294 4.93275 83.9664 4.89475 83.6594 4.89475C83.0994 4.89475 82.6314 5.02675 82.2554 5.29075C81.8794 5.55475 81.5954 5.92675 81.4054 6.40675C81.2154 6.88675 81.1204 7.44875 81.1204 8.09275C81.1204 9.15275 81.3564 9.95875 81.8284 10.5107C82.3004 11.0627 82.9284 11.3388 83.7424 11.3388H83.7544ZM83.9524 10.4867C83.3964 10.4867 82.9724 10.2727 82.6824 9.84475C82.3924 9.41675 82.2474 8.81475 82.2474 8.03875C82.2474 7.24675 82.4074 6.66875 82.7274 6.30475C83.0474 5.94075 83.4634 5.75875 83.9754 5.75875C84.3874 5.75875 84.7184 5.85875 84.9684 6.02575C85.2184 6.19275 85.4024 6.46275 85.5204 6.80275C85.6384 7.14275 85.7004 7.55475 85.7034 8.03875C85.7034 8.90675 85.5684 9.53175 85.2984 9.91375C85.0284 10.2957 84.5794 10.4867 83.9524 10.4867ZM93.7324 11.3388C94.3484 11.3388 94.8654 11.2038 95.2824 10.9338C95.7029 10.6609 96.0328 10.2694 96.2304 9.80875C96.4444 9.32875 96.5504 8.77275 96.5504 8.14075C96.5504 7.44475 96.4344 6.85475 96.2024 6.37075C95.9941 5.91312 95.6521 5.52928 95.2214 5.26975C94.7994 5.01975 94.3014 4.89475 93.7214 4.89475C93.1134 4.89475 92.5964 5.02975 92.1714 5.29975C91.7422 5.57352 91.4047 5.96951 91.2024 6.43675C90.9824 6.92475 90.8724 7.49275 90.8724 8.14075C90.8724 8.82875 90.9904 9.41075 91.2264 9.88675C91.4624 10.3627 91.7944 10.7237 92.2224 10.9697C92.6504 11.2157 93.1504 11.3398 93.7224 11.3398L93.7324 11.3388ZM93.7324 10.4627C93.3204 10.4627 92.9864 10.3587 92.7304 10.1507C92.4744 9.94275 92.2864 9.65075 92.1664 9.30475C92.0414 8.92137 91.9806 8.51996 91.9864 8.11675C91.9864 7.62475 92.0534 7.20275 92.1864 6.85075C92.3194 6.49875 92.5164 6.23075 92.7864 6.04375C93.0564 5.85675 93.3644 5.76375 93.7404 5.76375C94.1484 5.76375 94.4804 5.86775 94.7334 6.07575C94.9864 6.28375 95.1734 6.57575 95.2884 6.91875C95.409 7.30613 95.4677 7.71009 95.4624 8.11575C95.4624 8.59975 95.3964 9.01775 95.2644 9.36975C95.1324 9.72175 94.9384 9.99175 94.6824 10.1698C94.4264 10.3478 94.1124 10.4517 93.7404 10.4517L93.7324 10.4627ZM99.1124 11.2188V7.07275C99.1124 6.79675 99.1884 6.56775 99.3404 6.38575C99.4924 6.20375 99.6904 6.06775 99.9344 5.97775C100.178 5.88775 100.44 5.84275 100.72 5.84275C101.124 5.84275 101.453 5.95975 101.707 6.19275C101.961 6.42575 102.087 6.78575 102.087 7.26975V11.2197H103.187V7.16375C103.187 6.64375 103.087 6.21875 102.89 5.88875C102.706 5.57108 102.43 5.3166 102.098 5.15875C101.759 5.00073 101.389 4.92076 101.015 4.92475C100.683 4.92475 100.39 4.97075 100.135 5.06275C99.8804 5.15475 99.6654 5.27675 99.4874 5.42875C99.3094 5.58075 99.1704 5.74275 99.0704 5.91475V5.01475H97.9964V11.2188H99.1004H99.1124ZM109.972 11.2547C110.2 11.2547 110.392 11.2448 110.545 11.2218C110.663 11.2081 110.778 11.1829 110.89 11.1467V10.4028H110.212C110.06 10.4068 109.908 10.3927 109.759 10.3608C109.659 10.3328 109.571 10.2678 109.525 10.1658C109.479 10.0638 109.455 9.90275 109.455 9.68275V5.82475H110.853V5.01875H109.455V3.21875H108.639L108.369 5.02475H107.331V5.82475H108.339V9.71875C108.339 10.0507 108.386 10.3308 108.479 10.5588C108.572 10.7867 108.739 10.9588 108.974 11.0788C109.209 11.1988 109.542 11.2558 109.97 11.2558L109.972 11.2547ZM113.552 11.2188V7.07875C113.552 6.79875 113.627 6.57875 113.777 6.38575C113.934 6.19903 114.138 6.05806 114.367 5.97775C114.617 5.88659 114.881 5.84087 115.147 5.84275C115.555 5.84275 115.887 5.94275 116.14 6.14575C116.393 6.34875 116.52 6.64575 116.52 7.00575V11.2188H117.62V6.78475C117.62 6.40475 117.524 6.07675 117.332 5.80075C117.135 5.5207 116.866 5.29975 116.552 5.16175C116.207 5.00812 115.832 4.93135 115.454 4.93675C115.156 4.93114 114.86 4.97889 114.578 5.07775C114.326 5.17175 114.112 5.29375 113.936 5.44375C113.76 5.59375 113.62 5.74375 113.516 5.92675V2.30275H112.436V11.2188H113.54H113.552ZM121.972 11.3388C122.372 11.3388 122.756 11.2657 123.124 11.1187C123.492 10.9717 123.806 10.7557 124.066 10.4688C124.326 10.1818 124.494 9.82675 124.57 9.40675H123.52C123.487 9.5698 123.421 9.72447 123.327 9.86157C123.233 9.99867 123.112 10.1154 122.971 10.2048C122.685 10.3888 122.344 10.4807 121.948 10.4807C121.552 10.4807 121.215 10.3867 120.948 10.1987C120.681 10.0088 120.475 9.74504 120.354 9.43975C120.221 9.10089 120.154 8.73908 120.159 8.37475H124.605V7.96675C124.605 7.33875 124.5 6.79675 124.29 6.33675C124.097 5.89766 123.776 5.52669 123.369 5.27175C122.965 5.01975 122.471 4.89375 121.887 4.89375C121.287 4.89375 120.774 5.03175 120.347 5.30775C119.92 5.58375 119.597 5.96775 119.372 6.45975C119.147 6.95175 119.036 7.52375 119.036 8.17575C119.036 8.83575 119.16 9.40175 119.408 9.87375C119.656 10.3458 120 10.7077 120.44 10.9597C120.88 11.2117 121.39 11.3377 121.97 11.3377L121.972 11.3388ZM123.538 7.62475H120.166C120.162 7.31675 120.223 7.01775 120.349 6.72775C120.472 6.44272 120.669 6.19601 120.919 6.01375C121.173 5.82775 121.494 5.73375 121.882 5.73375C122.254 5.73375 122.562 5.81675 122.809 5.98375C123.056 6.15075 123.239 6.37575 123.359 6.66175C123.479 6.94775 123.539 7.26875 123.539 7.62475H123.538ZM34.9384 29.2188L36.2434 25.6548H41.5634L42.8384 29.2188H44.5384L39.8314 16.2048H37.9514L33.2454 29.2188H34.9384ZM41.1214 24.1248H36.6664L38.9064 17.8517L41.1214 24.1248ZM48.3334 32.1167V27.5368C48.4475 27.7538 48.5786 27.9614 48.7254 28.1577C48.8854 28.3737 49.0824 28.5758 49.3194 28.7648C49.5717 28.9622 49.8544 29.1172 50.1564 29.2238C50.5107 29.346 50.8837 29.4052 51.2584 29.3988C52.0804 29.3988 52.7824 29.2068 53.3644 28.8228C53.9464 28.4387 54.3924 27.8787 54.7014 27.1447C55.0104 26.4107 55.1644 25.5088 55.1644 24.4398C55.1644 23.3708 55.0044 22.4897 54.6874 21.7938C54.3704 21.0978 53.9274 20.5808 53.3594 20.2418C52.7914 19.9028 52.1374 19.7418 51.3934 19.7418C50.9674 19.7418 50.5874 19.7987 50.2534 19.9118C49.9422 20.0147 49.648 20.1633 49.3804 20.3528C49.1304 20.5328 48.9204 20.7278 48.7504 20.9377C48.5944 21.1271 48.4539 21.3288 48.3304 21.5408L48.3124 19.9207H46.6584V32.1247H48.3324L48.3334 32.1167ZM50.9334 28.1027C50.3574 28.1027 49.8734 27.9407 49.4834 27.6167C49.0934 27.2927 48.7994 26.8567 48.6014 26.3117C48.4034 25.7667 48.3044 25.1597 48.3044 24.4937C48.3044 23.4618 48.5264 22.6267 48.9704 21.9877C49.4144 21.3487 50.0684 21.0278 50.9324 21.0278C51.7844 21.0278 52.4324 21.3398 52.8764 21.9638C53.3204 22.5878 53.5424 23.4307 53.5424 24.4937C53.5424 25.7297 53.2994 26.6408 52.8124 27.2257C52.588 27.5073 52.3013 27.7331 51.975 27.8852C51.6486 28.0374 51.2914 28.1119 50.9314 28.1027H50.9334ZM59.0114 32.1167V27.5368C59.1255 27.7538 59.2566 27.9614 59.4034 28.1577C59.5634 28.3737 59.7604 28.5758 59.9974 28.7648C60.2497 28.9622 60.5324 29.1172 60.8344 29.2238C61.1544 29.3408 61.5344 29.3988 61.9374 29.3988C62.7594 29.3988 63.4614 29.2068 64.0434 28.8228C64.6254 28.4387 65.0714 27.8787 65.3804 27.1447C65.6894 26.4107 65.8434 25.5088 65.8434 24.4398C65.8434 23.3708 65.6834 22.4897 65.3664 21.7938C65.0494 21.0978 64.6064 20.5808 64.0384 20.2418C63.4704 19.9028 62.8164 19.7418 62.0724 19.7418C61.6464 19.7418 61.2674 19.7987 60.9344 19.9118C60.6232 20.0147 60.329 20.1633 60.0614 20.3528C59.8114 20.5328 59.6014 20.7278 59.4314 20.9377C59.2754 21.1271 59.1349 21.3288 59.0114 21.5408L58.9934 19.9207H57.3384V32.1247H59.0124L59.0114 32.1167ZM61.6114 28.1027C61.0354 28.1027 60.5514 27.9407 60.1614 27.6167C59.7714 27.2927 59.4774 26.8567 59.2794 26.3117C59.0814 25.7667 58.9824 25.1597 58.9824 24.4937C58.9824 23.4618 59.2044 22.6267 59.6484 21.9877C60.0924 21.3487 60.7464 21.0278 61.6104 21.0278C62.4624 21.0278 63.1104 21.3398 63.5544 21.9638C63.9984 22.5878 64.2204 23.4307 64.2204 24.4937C64.2204 25.7297 63.9774 26.6408 63.4904 27.2257C63.266 27.5073 62.9793 27.7331 62.653 27.8852C62.3266 28.0374 61.9694 28.1119 61.6094 28.1027H61.6114ZM76.8114 29.3988C77.8374 29.3988 78.7154 29.2418 79.4444 28.9268C80.1734 28.6117 80.7324 28.1868 81.1224 27.6488C81.5056 27.1324 81.7109 26.5057 81.7074 25.8628C81.7064 25.493 81.6628 25.1245 81.5774 24.7648C81.4865 24.383 81.328 24.0207 81.1094 23.6947C80.8844 23.3547 80.5664 23.0468 80.1554 22.7768C79.7444 22.5068 79.2154 22.3027 78.5674 22.1647L76.0924 21.5707C75.2464 21.3707 74.6624 21.1088 74.3424 20.8148C74.1845 20.6703 74.0598 20.4933 73.977 20.2959C73.8941 20.0986 73.855 19.8856 73.8624 19.6717C73.8624 19.3057 73.9424 18.9847 74.1054 18.7087C74.2684 18.4328 74.4854 18.2018 74.7574 18.0158C75.0407 17.8248 75.3541 17.6828 75.6844 17.5958C76.0349 17.5014 76.3964 17.4543 76.7594 17.4557C77.2449 17.4513 77.7278 17.5256 78.1894 17.6758C78.6155 17.8149 78.9941 18.0705 79.2824 18.4137C79.5824 18.7587 79.7454 19.2257 79.7994 19.8137H81.5194C81.5134 19.1597 81.3194 18.5438 80.9694 17.9688C80.6194 17.3937 80.0754 16.9287 79.3674 16.5737C78.6594 16.2188 77.7874 16.0438 76.7474 16.0438C75.8474 16.0438 75.0474 16.2037 74.3474 16.5208C73.6474 16.8377 73.0994 17.2828 72.7004 17.8528C72.3014 18.4228 72.1004 19.0828 72.1004 19.8328C72.1124 20.7208 72.4004 21.4347 72.9324 21.9748C73.4644 22.5148 74.2264 22.8898 75.1874 23.0998L77.7434 23.6938C78.2234 23.8018 78.6314 23.9517 78.9674 24.1437C79.3034 24.3357 79.5594 24.5758 79.7374 24.8638C79.9154 25.1518 80.0034 25.4907 80.0034 25.8807C80.0123 26.301 79.8623 26.7092 79.5834 27.0238C79.3034 27.3418 78.9234 27.5867 78.4404 27.7567C77.9574 27.9267 77.4104 28.0127 76.7984 28.0127C76.2524 28.0127 75.7484 27.9287 75.2824 27.7607C74.8164 27.5928 74.4244 27.3407 74.1024 27.0047C73.7804 26.6687 73.5674 26.2547 73.4584 25.7627H71.7124C71.7778 26.3279 71.9766 26.8695 72.2924 27.3428C72.6013 27.796 72.9973 28.1832 73.4574 28.4818C73.9254 28.7878 74.4574 29.0168 75.0234 29.1698C75.6049 29.3236 76.2039 29.401 76.8054 29.3997L76.8114 29.3988ZM87.3374 29.2728C87.6794 29.2728 87.9654 29.2558 88.1974 29.2228C88.4294 29.1898 88.6004 29.1527 88.7144 29.1107V27.9948H87.6984C87.4701 28.0008 87.2418 27.9796 87.0184 27.9318C86.9408 27.9143 86.8685 27.8787 86.8075 27.8277C86.7464 27.7768 86.6984 27.712 86.6674 27.6387C86.5974 27.4857 86.5644 27.2447 86.5644 26.9147V21.1187H88.6614V19.8948H86.5644V17.1947H85.3584L84.9534 19.8948H83.3964V21.1098H84.8984V26.9497C84.8984 27.4477 84.9684 27.8678 85.1104 28.2098C85.2524 28.5518 85.5104 28.8118 85.8534 28.9897C86.1964 29.1677 86.7054 29.2557 87.3474 29.2557L87.3374 29.2728ZM94.5074 29.3988C95.4314 29.3988 96.2074 29.1957 96.8334 28.7907C97.4594 28.3857 97.9334 27.8227 98.2554 27.1037C98.5774 26.3847 98.7374 25.5497 98.7374 24.6017C98.7374 23.5577 98.5634 22.6718 98.2154 21.9468C97.8674 21.2218 97.3774 20.6698 96.7434 20.2948C96.1094 19.9198 95.3654 19.7327 94.5074 19.7327C93.5954 19.7327 92.8204 19.9357 92.1814 20.3407C91.5424 20.7458 91.0574 21.3137 90.7274 22.0467C90.3974 22.7797 90.2324 23.6308 90.2324 24.6028C90.2324 25.6348 90.4094 26.5078 90.7624 27.2228C91.1154 27.9378 91.6144 28.4777 92.2564 28.8467C92.8984 29.2157 93.6484 29.3997 94.5064 29.3997L94.5074 29.3988ZM94.5074 28.0848C93.8894 28.0848 93.3874 27.9287 93.0044 27.6167C92.6214 27.3047 92.3384 26.8817 92.1584 26.3467C91.9784 25.8117 91.8884 25.2188 91.8884 24.5648C91.8884 23.8267 91.9884 23.1947 92.1884 22.6647C92.3884 22.1347 92.6854 21.7348 93.0754 21.4648C93.4654 21.1947 93.9424 21.0448 94.5054 21.0448C95.1174 21.0448 95.6134 21.2008 96.0054 21.5128C96.3974 21.8248 96.6654 22.2458 96.8384 22.7778C97.0114 23.3097 97.0984 23.9077 97.0984 24.5737C97.0984 25.2997 96.9984 25.9268 96.8014 26.4538C96.6044 26.9808 96.3014 27.3868 95.9284 27.6688C95.5554 27.9508 95.0734 28.0918 94.5154 28.0918L94.5074 28.0848ZM102.577 29.2188V23.4317C102.577 23.0317 102.647 22.7098 102.777 22.4368C102.912 22.1707 103.112 21.9429 103.358 21.7747C103.617 21.6009 103.908 21.4802 104.213 21.4198C104.557 21.3496 104.908 21.3271 105.257 21.3528C105.353 21.3528 105.472 21.3608 105.613 21.3757C105.754 21.3907 105.87 21.4188 105.959 21.4608V19.8608C105.887 19.8188 105.785 19.7887 105.653 19.7607C105.521 19.7327 105.386 19.7337 105.248 19.7337C104.848 19.7337 104.482 19.8058 104.118 19.9498C103.754 20.0938 103.432 20.3097 103.15 20.6017C102.868 20.8937 102.65 21.2618 102.493 21.7038V19.9037H100.909V29.2188H102.565H102.577ZM111.597 29.3988C112.197 29.3988 112.773 29.2988 113.325 29.0708C113.866 28.8595 114.35 28.5249 114.738 28.0938C115.138 27.6618 115.38 27.1308 115.494 26.5008H113.919C113.87 26.7453 113.771 26.9773 113.63 27.1829C113.488 27.3886 113.307 27.5636 113.096 27.6978C112.666 27.9748 112.156 28.1118 111.561 28.1118C110.966 28.1118 110.461 27.9718 110.063 27.6888C109.665 27.4058 109.367 27.0288 109.163 26.5488C108.959 26.0688 108.871 25.5488 108.871 24.9518H115.541V24.3398C115.541 23.3978 115.384 22.5837 115.068 21.8967C114.778 21.2385 114.297 20.682 113.688 20.2987C113.083 19.9207 112.341 19.7318 111.465 19.7318C110.565 19.7318 109.795 19.9387 109.165 20.3517C108.535 20.7647 108.039 21.3517 107.703 22.0798C107.367 22.8078 107.199 23.6757 107.199 24.6537C107.199 25.6537 107.385 26.4937 107.757 27.2007C108.104 27.8825 108.642 28.4485 109.305 28.8298C109.965 29.2078 110.73 29.3968 111.6 29.3968L111.597 29.3988ZM113.947 23.8288H108.889C108.884 23.3656 108.978 22.9066 109.164 22.4827C109.347 22.055 109.643 21.6851 110.019 21.4128C110.399 21.1348 110.881 20.9947 111.464 20.9947C112.022 20.9947 112.484 21.1187 112.864 21.3678C113.244 21.6168 113.508 21.9557 113.688 22.3848C113.874 22.8435 113.966 23.3349 113.958 23.8298L113.947 23.8288Z" fill="white"/>
</svg>
